<svg width="512" height="512" xmlns="http://www.w3.org/2000/svg">

 <g>
  <title>background</title>
  <rect fill="none" id="canvas_background" height="402" width="582" y="-1" x="-1"/>
 </g>
 <g>
  <title>Layer 1</title>
  <ellipse ry="185.741318" rx="185.741318" id="svg_2" cy="281.880113" cx="255.495259" stroke-width="1.5" stroke="#000" fill="#adadad"/>
  <path fill="#cecece" id="svg_1" d="m256,0c-141.4,0 -256,114.6 -256,256s114.6,256 256,256s256,-114.6 256,-256s-114.6,-256 -256,-256zm0,128c39.77,0 72,32.24 72,72s-32.2,72 -72,72c-39.76,0 -72,-32.24 -72,-72s32.2,-72 72,-72zm0,320c-52.93,0 -100.9,-21.53 -135.7,-56.29c16.2,-41.81 56.2,-71.71 103.7,-71.71l64,0c47.54,0 87.54,29.88 103.7,71.71c-34.8,34.79 -82.8,56.29 -135.7,56.29z"/>
 </g>
</svg>