<?xml version="1.0" encoding="UTF-8" standalone="no"?>
<!-- Created with Inkscape (http://www.inkscape.org/) -->

<svg
   width="526.52563mm"
   height="281.74634mm"
   viewBox="0 0 526.52563 281.74634"
   version="1.1"
   id="svg5"
   xml:space="preserve"
   xmlns:inkscape="http://www.inkscape.org/namespaces/inkscape"
   xmlns:sodipodi="http://sodipodi.sourceforge.net/DTD/sodipodi-0.dtd"
   xmlns="http://www.w3.org/2000/svg"
   xmlns:svg="http://www.w3.org/2000/svg"><sodipodi:namedview
     id="namedview7"
     pagecolor="#ffffff"
     bordercolor="#000000"
     borderopacity="0.25"
     inkscape:showpageshadow="2"
     inkscape:pageopacity="0.0"
     inkscape:pagecheckerboard="0"
     inkscape:deskcolor="#d1d1d1"
     inkscape:document-units="mm"
     showgrid="false" /><defs
     id="defs2"><clipPath
       clipPathUnits="userSpaceOnUse"
       id="clipPath364"><path
         d="M 0,1400 H 1700 V 0 H 0 Z"
         id="path362" /></clipPath></defs><g
     id="g358"
     transform="matrix(0.33444613,0.11224053,0.11224054,-0.33444614,-77.091806,292.06615)"><g
       id="g360"
       clip-path="url(#clipPath364)"><g
         id="g366"
         transform="translate(790.9408,898.4452)"><path
           d="m 0,0 c 8.398,2.678 15.762,6.87 22.089,12.568 6.32,5.702 11.863,12.39 16.605,20.077 4.752,7.688 8.658,16.125 11.724,25.334 3.062,9.204 5.537,18.641 7.422,28.332 2.447,13.284 3.13,26.745 2.045,40.37 -1.089,13.62 -3.785,25.83 -8.081,36.63 -4.296,10.796 -10.202,19.504 -17.702,26.111 -7.504,6.601 -16.426,9.713 -26.757,9.335 -3.835,-8.421 -7.235,-17.776 -10.213,-28.063 -2.971,-10.291 -5.815,-21.134 -8.518,-32.538 -2.709,-11.404 -5.379,-23.055 -8.016,-34.952 -2.633,-11.891 -5.566,-23.54 -8.785,-34.935 -3.23,-11.397 -6.835,-22.4 -10.817,-33.011 -3.991,-10.618 -8.619,-20.276 -13.9,-28.985 3.958,-1.655 8.041,-3.175 12.257,-4.575 4.217,-1.4 8.497,-2.469 12.856,-3.233 4.352,-0.754 8.831,-1.079 13.429,-0.987 C -9.77,-2.425 -4.978,-1.589 0,0 m 40.785,232.556 c -5.753,-1.836 -10.867,-4.747 -15.333,-8.744 -4.472,-3.998 -8.447,-8.862 -11.928,-14.605 13.189,-2.136 24.365,-7.357 33.525,-15.658 9.161,-8.311 16.506,-18.437 22.03,-30.384 5.521,-11.958 9.275,-25.068 11.254,-39.346 1.985,-14.283 2.283,-28.415 0.915,-42.391 C 80.103,69.412 78.04,57.741 75.056,46.419 72.066,35.097 67.771,24.647 62.171,15.064 56.571,5.475 49.369,-2.988 40.575,-10.33 31.772,-17.679 20.993,-23.389 8.241,-27.454 c -7.939,-2.528 -15.289,-3.543 -22.042,-3.042 -6.763,0.504 -13.109,1.866 -19.044,4.089 -5.934,2.218 -11.505,4.902 -16.706,8.042 -5.202,3.141 -10.13,6.109 -14.795,8.907 -4.774,-5.461 -10.007,-10.128 -15.714,-14.008 -5.709,-3.876 -12.06,-6.928 -19.062,-9.163 -8.559,-2.725 -16.042,-3.697 -22.466,-2.914 -6.418,0.783 -11.598,2.642 -15.531,5.586 -3.944,2.948 -6.628,6.67 -8.066,11.184 -1.438,4.514 -1.479,9.083 -0.128,13.712 1.352,4.629 4.218,9.063 8.617,13.291 4.394,4.226 10.478,7.578 18.261,10.061 6.998,2.229 13.684,3.03 20.056,2.412 6.369,-0.634 12.613,-1.943 18.736,-3.927 4.273,11.297 8.164,24.108 11.658,38.421 3.494,14.308 7.202,29.032 11.114,44.161 3.922,15.135 8.354,30.261 13.302,45.378 4.953,15.118 10.999,29.215 18.143,42.292 -5.461,-2.772 -10.977,-6.03 -16.552,-9.779 -5.576,-3.75 -11.26,-8.084 -17.055,-13.017 -6.953,-6.163 -12.682,-12.528 -17.182,-19.107 -4.501,-6.573 -7.928,-13.026 -10.286,-19.343 -2.351,-6.328 -3.739,-12.337 -4.152,-18.037 -0.407,-5.704 0.004,-10.63 1.243,-14.771 1.234,-4.152 3.194,-7.467 5.875,-9.956 2.675,-2.485 5.949,-3.627 9.831,-3.421 l -5.045,-12.404 c -9.069,-2.211 -17.126,-2.464 -24.18,-0.767 -7.054,1.692 -12.782,4.881 -17.189,9.557 -4.408,4.681 -7.389,10.544 -8.949,17.589 -1.559,7.04 -1.278,14.761 0.851,23.152 2.119,8.39 6.146,17.13 12.08,26.219 5.93,9.084 14.086,18.027 24.483,26.83 11.068,9.35 23.688,17.356 37.851,24.019 14.159,6.651 28.098,11.311 41.819,13.974 6.302,8.176 13.525,15.362 21.668,21.559 8.133,6.195 17.334,10.924 27.607,14.199 z"
           style="fill:#000000;fill-opacity:1;fill-rule:nonzero;stroke:none"
           id="path368" /></g><g
         id="g370"
         transform="translate(929.4224,1049.5348)"><path
           d="m 0,0 c -1.359,-1.114 -2.739,-3.098 -4.147,-5.946 -1.408,-2.853 -2.673,-6.251 -3.812,-10.217 -1.141,-3.961 -2.192,-8.323 -3.155,-13.085 -0.968,-4.769 -1.615,-9.602 -1.933,-14.5 l 8.168,2.606 c 3.574,1.139 6.265,3.196 8.058,6.167 1.794,2.971 3.061,7.057 3.803,12.267 0.78,4.015 1.216,7.751 1.311,11.213 C 8.389,-8.038 8.171,-5.191 7.63,-2.966 7.088,-0.737 6.193,0.734 4.938,1.447 3.682,2.164 2.037,1.677 0,0 m 12.919,-71.976 c 3.269,1.039 6.48,2.663 9.63,4.869 3.157,2.203 6.04,4.709 8.662,7.516 2.616,2.806 4.863,5.832 6.742,9.09 1.875,3.256 3.246,6.477 4.118,9.672 l 6.048,-5.275 c -1.261,-9.484 -5.898,-18.078 -13.897,-25.768 -8.005,-7.691 -18.305,-13.547 -30.907,-17.563 -6.534,-2.084 -12.48,-2.648 -17.837,-1.705 -5.359,0.949 -9.954,3.129 -13.785,6.536 -3.827,3.407 -6.719,7.925 -8.688,13.558 -1.963,5.623 -2.719,12.022 -2.263,19.198 1.095,16.977 5.337,30.966 12.714,41.976 7.373,11.003 17.047,18.419 29.029,22.239 6.379,2.033 11.736,1.897 16.073,-0.407 4.331,-2.306 7.447,-5.766 9.353,-10.385 1.896,-4.627 2.498,-10 1.797,-16.144 -0.697,-6.132 -2.874,-12.096 -6.51,-17.884 C 18.036,-40.441 10.858,-45.894 1.68,-48.82 l -14.936,-4.763 c 0.211,-7.649 2.798,-13.206 7.758,-16.678 4.965,-3.476 11.104,-4.046 18.417,-1.715"
           style="fill:#000000;fill-opacity:1;fill-rule:nonzero;stroke:none"
           id="path372" /></g><g
         id="g374"
         transform="translate(1001.4244,1064.0056)"><path
           d="m 0,0 c 4.521,2.468 9.069,3.791 13.644,3.963 4.57,0.172 8.639,-0.757 12.204,-2.789 3.561,-2.042 6.502,-5.22 8.821,-9.533 2.316,-4.32 3.565,-9.708 3.737,-16.162 0.148,-8.524 -0.814,-15.983 -2.886,-22.388 -2.076,-6.405 -5.018,-11.969 -8.82,-16.696 -3.808,-4.723 -8.286,-8.68 -13.446,-11.866 -5.15,-3.185 -10.764,-5.744 -16.832,-7.682 -4.979,-1.584 -9.268,-1.707 -12.86,-0.373 -3.604,1.338 -6.5,3.589 -8.706,6.74 -2.202,3.151 -3.701,7.047 -4.491,11.678 -0.796,4.635 -0.692,9.421 0.3,14.366 0.784,4.53 1.855,8.433 3.215,11.693 1.359,3.261 2.813,5.953 4.366,8.074 1.552,2.126 3.097,3.731 4.637,4.826 1.536,1.084 2.851,1.803 3.941,2.152 4.354,1.387 7.789,0.558 10.306,-2.497 2.517,-3.055 3.635,-7.367 3.355,-12.941 -0.498,-6.5 -2.162,-11.918 -4.977,-16.239 -2.825,-4.334 -6.565,-7.236 -11.229,-8.724 -0.785,-0.248 -1.844,-0.419 -3.185,-0.502 0.679,-3.21 2.004,-5.622 3.968,-7.215 1.972,-1.608 4.512,-1.91 7.621,-0.917 2.954,0.944 5.621,2.65 8.005,5.126 2.386,2.471 4.374,5.504 5.975,9.101 1.592,3.59 2.881,7.606 3.87,12.031 0.99,4.426 1.568,9.065 1.734,13.924 0.632,12.539 -1.11,20.553 -5.217,24.042 -4.117,3.488 -10.185,2.495 -18.211,-2.975 -1.982,-1.316 -3.881,-1.796 -5.71,-1.435 -1.83,0.36 -3.404,1.269 -4.729,2.731 -1.325,1.467 -2.401,3.351 -3.217,5.659 -0.822,2.311 -1.161,4.861 -1.024,7.648 0.448,6.655 2.084,12.146 4.904,16.474 2.821,4.323 6.565,7.236 11.228,8.724 4.514,1.438 7.99,0.615 10.427,-2.463 C 3.156,22.472 4.262,18.069 4.032,12.34 3.857,10.739 3.482,8.697 2.906,6.199 2.33,3.7 1.361,1.634 0,0"
           style="fill:#000000;fill-opacity:1;fill-rule:nonzero;stroke:none"
           id="path376" /></g><g
         id="g378"
         transform="translate(1102.056,1046.7231)"><path
           d="m 0,0 c 0.117,1.236 0.327,3.661 0.635,7.272 0.303,3.61 0.701,7.891 1.177,12.845 0.478,4.949 0.935,10.367 1.377,16.249 0.437,5.882 0.873,11.633 1.313,17.259 -2.41,1.628 -5.093,1.976 -8.047,1.033 -5.753,-1.836 -10.267,-5.971 -13.524,-12.408 -3.263,-6.438 -5.993,-16.692 -8.191,-30.766 -0.742,-5.205 -1.139,-10 -1.194,-14.39 -0.061,-4.391 0.3,-8.086 1.093,-11.09 0.784,-3.01 2.036,-5.182 3.75,-6.52 1.71,-1.339 3.884,-1.588 6.534,-0.745 2.644,0.843 5.197,2.51 7.656,5.013 2.46,2.493 4.826,5.564 7.097,9.203 -0.043,1.185 -0.014,2.312 0.083,3.371 C -0.153,-2.621 -0.071,-1.396 0,0 m -10.517,66.059 c 6.063,1.937 11.349,1.218 15.85,-2.141 l 1.938,23.751 c 0.411,3.559 -0.202,6.145 -1.831,7.774 -1.638,1.624 -4.161,1.886 -7.585,0.796 l -2.33,-0.741 1.463,11.52 c 1.195,0.549 2.446,1.205 3.744,1.969 1.15,0.704 2.431,1.371 3.865,1.998 1.429,0.627 2.917,1.184 4.476,1.684 8.868,2.826 15.201,2.186 18.994,-1.914 3.788,-4.105 5.17,-12.065 4.141,-23.874 L 25.543,4.543 c -0.095,-3.462 0.791,-5.575 2.664,-6.349 1.879,-0.777 4.09,-0.454 6.641,0.957 2.544,1.414 5.004,3.781 7.376,7.11 2.362,3.328 3.892,7.413 4.575,12.257 l 6.047,-5.27 C 52.483,9.015 51.445,4.87 49.742,0.816 48.034,-3.243 45.881,-6.969 43.284,-10.37 c -2.608,-3.397 -5.592,-6.407 -8.951,-9.024 -3.371,-2.614 -6.921,-4.516 -10.655,-5.706 -4.823,-1.539 -9.022,-1.805 -12.593,-0.804 -3.578,1.001 -6.402,3.4 -8.469,7.202 -3.322,-5.178 -6.98,-9.552 -10.98,-13.145 -3.995,-3.588 -8.093,-6.047 -12.296,-7.39 -5.289,-1.685 -9.99,-1.856 -14.104,-0.508 -4.113,1.342 -7.544,3.893 -10.28,7.648 -2.737,3.755 -4.739,8.554 -6.009,14.411 -1.263,5.848 -1.514,12.41 -0.749,19.686 1.788,18.051 6.433,32.386 13.935,43 7.491,10.618 16.612,17.638 27.35,21.059"
           style="fill:#000000;fill-opacity:1;fill-rule:nonzero;stroke:none"
           id="path380" /></g><g
         id="g382"
         transform="translate(1187.0638,1131.6649)"><path
           d="m 0,0 c -1.353,-1.119 -2.739,-3.098 -4.142,-5.945 -1.408,-2.854 -2.678,-6.252 -3.817,-10.218 -1.135,-3.961 -2.187,-8.322 -3.155,-13.085 -0.963,-4.768 -1.61,-9.602 -1.928,-14.5 l 8.163,2.605 c 3.579,1.141 6.266,3.191 8.064,6.169 1.794,2.966 3.061,7.057 3.802,12.267 0.775,4.014 1.211,7.75 1.306,11.212 0.096,3.457 -0.121,6.299 -0.658,8.529 C 7.089,-0.742 6.198,0.73 4.943,1.447 3.688,2.159 2.037,1.677 0,0 m 12.924,-71.976 c 3.264,1.039 6.475,2.663 9.631,4.865 3.151,2.207 6.034,4.713 8.656,7.52 2.617,2.8 4.868,5.833 6.742,9.089 1.875,3.257 3.247,6.472 4.118,9.673 l 6.048,-5.276 c -1.26,-9.489 -5.893,-18.076 -13.892,-25.767 -8.004,-7.696 -18.305,-13.546 -30.907,-17.562 -6.534,-2.084 -12.485,-2.649 -17.842,-1.706 -5.359,0.949 -9.954,3.129 -13.78,6.536 -3.832,3.407 -6.724,7.925 -8.692,13.553 -1.964,5.628 -2.72,12.027 -2.264,19.203 1.1,16.978 5.342,30.967 12.714,41.975 7.373,11.004 17.053,18.416 29.035,22.235 6.379,2.033 11.735,1.903 16.067,-0.402 4.331,-2.306 7.453,-5.77 9.353,-10.391 1.901,-4.62 2.503,-9.994 1.802,-16.137 -0.702,-6.133 -2.874,-12.097 -6.51,-17.884 -5.167,-7.989 -12.339,-13.446 -21.518,-16.367 l -14.936,-4.763 c 0.206,-7.65 2.793,-13.207 7.758,-16.678 4.965,-3.476 11.099,-4.047 18.417,-1.716"
           style="fill:#000000;fill-opacity:1;fill-rule:nonzero;stroke:none"
           id="path384" /></g><g
         id="g386"
         transform="translate(1310.9835,1171.1658)"><path
           d="m 0,0 c -1.359,-1.114 -2.739,-3.098 -4.142,-5.945 -1.408,-2.854 -2.683,-6.253 -3.817,-10.218 -1.141,-3.961 -2.187,-8.322 -3.155,-13.085 -0.968,-4.769 -1.61,-9.602 -1.933,-14.5 l 8.168,2.606 c 3.579,1.14 6.265,3.196 8.058,6.167 1.794,2.971 3.061,7.057 3.808,12.268 0.775,4.014 1.211,7.75 1.306,11.212 0.096,3.457 -0.121,6.299 -0.658,8.529 C 7.088,-0.737 6.198,0.735 4.943,1.447 3.687,2.165 2.037,1.677 0,0 m 12.919,-71.976 c 3.269,1.039 6.48,2.663 9.635,4.87 3.152,2.202 6.035,4.708 8.657,7.515 2.616,2.806 4.863,5.832 6.742,9.09 1.875,3.256 3.247,6.472 4.118,9.672 l 6.048,-5.275 c -1.261,-9.485 -5.892,-18.077 -13.897,-25.768 -8,-7.691 -18.3,-13.546 -30.907,-17.563 -6.529,-2.083 -12.48,-2.648 -17.837,-1.705 -5.359,0.949 -9.954,3.129 -13.78,6.537 -3.832,3.406 -6.724,7.924 -8.693,13.557 -1.963,5.623 -2.724,12.022 -2.263,19.198 1.1,16.978 5.337,30.966 12.714,41.976 7.373,11.003 17.047,18.419 29.034,22.239 6.374,2.033 11.731,1.897 16.068,-0.407 4.331,-2.306 7.453,-5.77 9.353,-10.385 1.896,-4.627 2.498,-10 1.802,-16.143 -0.707,-6.134 -2.873,-12.096 -6.51,-17.884 -5.167,-7.989 -12.34,-13.441 -21.518,-16.367 l -14.936,-4.763 c 0.206,-7.65 2.793,-13.207 7.758,-16.678 4.96,-3.477 11.099,-4.047 18.412,-1.716"
           style="fill:#000000;fill-opacity:1;fill-rule:nonzero;stroke:none"
           id="path388" /></g><g
         id="g390"
         transform="translate(1402.4414,1127.4351)"><path
           d="m 0,0 c -1.707,-4.06 -3.866,-7.786 -6.463,-11.187 -2.603,-3.396 -5.586,-6.406 -8.952,-9.019 -3.37,-2.619 -6.914,-4.52 -10.648,-5.711 -3.734,-1.191 -7.165,-1.599 -10.278,-1.219 -3.123,0.374 -5.778,1.587 -7.97,3.633 -2.191,2.04 -3.805,4.953 -4.841,8.737 -1.036,3.785 -1.311,8.412 -0.825,13.876 0.072,1.391 0.325,4.348 0.771,8.857 0.445,4.519 0.901,9.805 1.373,15.866 0.462,6.059 0.976,12.525 1.533,19.386 0.552,6.86 1.062,13.32 1.533,19.385 0.467,6.06 0.9,11.296 1.288,15.707 0.399,4.406 0.656,7.233 0.773,8.474 0.411,3.553 -0.162,6.155 -1.716,7.807 -1.558,1.647 -4.121,1.898 -7.7,0.757 l -2.335,-0.741 1.703,11.594 c 1.195,0.553 2.446,1.21 3.744,1.969 1.145,0.703 2.396,1.36 3.745,1.963 1.35,0.599 2.882,1.173 4.591,1.718 8.873,2.831 15.161,2.174 18.879,-1.948 3.713,-4.133 5.056,-12.104 4.026,-23.913 -0.071,-1.396 -0.233,-3.589 -0.475,-6.58 -0.247,-2.993 -0.526,-6.557 -0.844,-10.679 -0.311,-4.131 -0.682,-8.617 -1.102,-13.463 -0.43,-4.852 -0.826,-9.647 -1.198,-14.396 -0.87,-11.249 -1.811,-23.626 -2.811,-37.141 -0.255,-3.514 0.596,-5.643 2.549,-6.388 1.954,-0.755 4.16,-0.432 6.635,0.956 2.471,1.387 4.89,3.742 7.262,7.071 2.362,3.328 3.963,7.434 4.809,12.336 L 3.105,12.432 C 2.741,8.203 1.702,4.059 0,0"
           style="fill:#000000;fill-opacity:1;fill-rule:nonzero;stroke:none"
           id="path392" /></g><g
         id="g394"
         transform="translate(789.3851,907.1806)"><path
           d="m 0,0 c 8.398,2.673 15.763,6.865 22.089,12.568 6.32,5.702 11.858,12.39 16.611,20.072 4.741,7.687 8.652,16.13 11.719,25.334 3.062,9.203 5.536,18.646 7.422,28.332 2.446,13.289 3.124,26.749 2.039,40.374 -1.083,13.616 -3.779,25.826 -8.076,36.631 -4.301,10.795 -10.202,19.498 -17.706,26.105 -7.505,6.606 -16.427,9.718 -26.758,9.341 -3.829,-8.426 -7.23,-17.782 -10.208,-28.063 -2.976,-10.297 -5.819,-21.14 -8.523,-32.544 -2.703,-11.404 -5.374,-23.049 -8.011,-34.946 -2.633,-11.896 -5.571,-23.541 -8.791,-34.936 -3.223,-11.401 -6.828,-22.404 -10.81,-33.016 -3.992,-10.612 -8.62,-20.27 -13.9,-28.984 3.957,-1.65 8.036,-3.176 12.257,-4.575 4.211,-1.396 8.497,-2.47 12.855,-3.228 4.352,-0.754 8.826,-1.08 13.424,-0.988 C -9.769,-2.43 -4.984,-1.59 0,0 m 40.786,232.551 c -5.758,-1.837 -10.872,-4.748 -15.339,-8.745 -4.472,-3.998 -8.446,-8.862 -11.923,-14.599 13.189,-2.136 24.365,-7.357 33.525,-15.663 9.161,-8.311 16.5,-18.432 22.031,-30.384 5.52,-11.953 9.27,-25.069 11.254,-39.347 1.979,-14.278 2.283,-28.414 0.914,-42.385 C 80.104,69.407 78.04,57.741 75.056,46.419 72.061,35.096 67.766,24.646 62.167,15.058 56.571,5.475 49.369,-2.988 40.571,-10.336 31.767,-17.679 20.987,-23.389 8.236,-27.455 c -7.934,-2.527 -15.283,-3.547 -22.037,-3.041 -6.763,0.504 -13.108,1.861 -19.043,4.084 -5.94,2.222 -11.505,4.902 -16.706,8.042 -5.203,3.146 -10.136,6.113 -14.796,8.912 -4.774,-5.461 -10.006,-10.133 -15.714,-14.008 -5.709,-3.876 -12.059,-6.933 -19.062,-9.163 -8.558,-2.73 -16.042,-3.697 -22.465,-2.919 -6.419,0.783 -11.599,2.647 -15.532,5.591 -3.943,2.943 -6.628,6.67 -8.066,11.184 -1.437,4.509 -1.484,9.082 -0.133,13.711 1.357,4.629 4.224,9.059 8.622,13.292 4.39,4.22 10.478,7.578 18.261,10.061 6.998,2.229 13.684,3.03 20.052,2.406 6.373,-0.628 12.612,-1.938 18.736,-3.927 4.277,11.303 8.164,24.108 11.662,38.427 3.494,14.308 7.197,29.031 11.114,44.161 3.917,15.134 8.355,30.256 13.302,45.373 4.953,15.117 10.999,29.214 18.144,42.291 -5.462,-2.766 -10.977,-6.029 -16.553,-9.774 -5.576,-3.749 -11.264,-8.089 -17.06,-13.022 -6.947,-6.162 -12.676,-12.527 -17.177,-19.101 -4.5,-6.578 -7.928,-13.031 -10.285,-19.349 -2.352,-6.322 -3.744,-12.337 -4.148,-18.03 -0.412,-5.705 -0.001,-10.631 1.233,-14.778 1.24,-4.151 3.199,-7.461 5.875,-9.951 2.676,-2.49 5.955,-3.631 9.831,-3.421 l -5.039,-12.408 c -9.07,-2.206 -17.132,-2.46 -24.181,-0.762 -7.053,1.687 -12.786,4.875 -17.189,9.557 -4.407,4.676 -7.388,10.539 -8.948,17.584 -1.56,7.045 -1.278,14.761 0.845,23.156 2.125,8.386 6.151,17.126 12.086,26.215 5.929,9.089 14.085,18.032 24.478,26.83 11.072,9.355 23.687,17.36 37.855,24.023 14.159,6.652 28.099,11.306 41.814,13.969 6.307,8.182 13.525,15.368 21.668,21.564 8.134,6.19 17.339,10.925 27.612,14.2 z"
           style="fill:#f17408;fill-opacity:1;fill-rule:nonzero;stroke:none"
           id="path396" /></g><g
         id="g398"
         transform="translate(927.8667,1058.2701)"><path
           d="m 0,0 c -1.358,-1.119 -2.738,-3.103 -4.147,-5.946 -1.408,-2.853 -2.677,-6.257 -3.812,-10.217 -1.141,-3.961 -2.192,-8.323 -3.155,-13.085 -0.967,-4.774 -1.615,-9.602 -1.938,-14.501 l 8.169,2.601 c 3.579,1.14 6.265,3.196 8.063,6.168 1.793,2.971 3.06,7.062 3.802,12.267 0.775,4.02 1.21,7.755 1.312,11.213 0.09,3.462 -0.127,6.303 -0.664,8.534 C 7.089,-0.742 6.193,0.729 4.938,1.447 3.683,2.159 2.037,1.677 0,0 m 12.914,-71.977 c 3.269,1.04 6.48,2.658 9.636,4.865 3.157,2.203 6.039,4.714 8.661,7.521 2.612,2.8 4.858,5.831 6.742,9.09 1.876,3.251 3.247,6.472 4.113,9.666 l 6.048,-5.27 c -1.255,-9.489 -5.893,-18.077 -13.892,-25.767 -8.004,-7.697 -18.305,-13.547 -30.907,-17.563 -6.534,-2.084 -12.484,-2.654 -17.842,-1.705 -5.358,0.943 -9.954,3.129 -13.779,6.531 -3.832,3.406 -6.725,7.929 -8.688,13.558 -1.964,5.628 -2.725,12.027 -2.269,19.202 1.101,16.973 5.342,30.967 12.719,41.977 7.374,10.998 17.048,18.414 29.03,22.234 6.379,2.033 11.736,1.897 16.067,-0.403 4.336,-2.305 7.453,-5.77 9.353,-10.39 1.902,-4.626 2.503,-9.999 1.802,-16.138 -0.702,-6.133 -2.874,-12.096 -6.51,-17.884 -5.167,-7.989 -12.339,-13.446 -21.517,-16.372 l -14.936,-4.763 c 0.205,-7.644 2.798,-13.206 7.757,-16.678 4.965,-3.471 11.099,-4.047 18.412,-1.711"
           style="fill:#f17408;fill-opacity:1;fill-rule:nonzero;stroke:none"
           id="path400" /></g><g
         id="g402"
         transform="translate(999.8636,1072.7402)"><path
           d="m 0,0 c 4.527,2.469 9.074,3.791 13.65,3.959 4.574,0.178 8.634,-0.758 12.204,-2.789 3.561,-2.042 6.501,-5.215 8.821,-9.529 2.31,-4.32 3.564,-9.707 3.736,-16.161 0.149,-8.529 -0.819,-15.99 -2.891,-22.389 -2.071,-6.404 -5.012,-11.973 -8.815,-16.695 -3.807,-4.729 -8.291,-8.686 -13.445,-11.872 -5.155,-3.185 -10.764,-5.744 -16.833,-7.676 -4.978,-1.589 -9.267,-1.712 -12.865,-0.374 -3.598,1.334 -6.494,3.585 -8.701,6.74 -2.202,3.152 -3.701,7.048 -4.496,11.678 -0.791,4.63 -0.687,9.421 0.305,14.367 0.784,4.53 1.85,8.432 3.215,11.688 1.359,3.266 2.814,5.953 4.366,8.079 1.553,2.12 3.098,3.725 4.632,4.82 1.541,1.09 2.851,1.808 3.941,2.157 4.354,1.387 7.794,0.554 10.312,-2.502 2.516,-3.049 3.635,-7.366 3.354,-12.936 -0.497,-6.505 -2.162,-11.917 -4.982,-16.245 -2.819,-4.332 -6.564,-7.235 -11.229,-8.718 -0.779,-0.253 -1.838,-0.423 -3.18,-0.501 0.674,-3.216 1.999,-5.623 3.969,-7.221 1.966,-1.603 4.506,-1.905 7.62,-0.916 2.954,0.943 5.622,2.65 8.006,5.125 2.386,2.471 4.373,5.509 5.969,9.106 1.597,3.591 2.887,7.602 3.876,12.027 0.989,4.431 1.567,9.07 1.734,13.923 0.631,12.545 -1.116,20.558 -5.223,24.047 -4.111,3.484 -10.18,2.496 -18.205,-2.979 -1.983,-1.317 -3.886,-1.797 -5.711,-1.431 -1.829,0.355 -3.403,1.264 -4.729,2.732 -1.324,1.462 -2.4,3.346 -3.222,5.658 -0.816,2.307 -1.156,4.857 -1.018,7.643 0.448,6.655 2.079,12.146 4.903,16.48 2.821,4.322 6.566,7.231 11.229,8.718 4.514,1.439 7.989,0.621 10.427,-2.462 C 3.161,22.473 4.267,18.07 4.037,12.341 3.862,10.739 3.488,8.693 2.907,6.193 2.33,3.7 1.367,1.63 0,0"
           style="fill:#f17408;fill-opacity:1;fill-rule:nonzero;stroke:none"
           id="path404" /></g><g
         id="g406"
         transform="translate(1100.5012,1055.4534)"><path
           d="m 0,0 c 0.117,1.236 0.326,3.666 0.634,7.277 0.304,3.605 0.696,7.89 1.173,12.839 0.483,4.95 0.94,10.368 1.381,16.256 0.438,5.876 0.874,11.627 1.308,17.257 -2.405,1.629 -5.087,1.972 -8.042,1.034 -5.758,-1.837 -10.266,-5.976 -13.524,-12.408 -3.262,-6.443 -5.992,-16.697 -8.191,-30.766 -0.746,-5.211 -1.143,-10.006 -1.199,-14.396 -0.056,-4.385 0.306,-8.085 1.099,-11.089 0.783,-3.005 2.031,-5.182 3.749,-6.515 1.711,-1.344 3.885,-1.593 6.534,-0.745 2.644,0.843 5.197,2.511 7.657,5.009 2.459,2.497 4.82,5.563 7.092,9.201 -0.039,1.191 -0.009,2.313 0.083,3.371 C -0.159,-2.617 -0.071,-1.396 0,0 m -10.523,66.064 c 6.069,1.932 11.349,1.218 15.856,-2.146 L 7.27,87.674 c 0.411,3.559 -0.202,6.145 -1.836,7.774 -1.632,1.619 -4.161,1.886 -7.58,0.796 l -2.334,-0.746 1.472,11.526 c 1.19,0.548 2.441,1.205 3.74,1.963 1.149,0.704 2.43,1.376 3.859,2.003 1.43,0.621 2.922,1.184 4.482,1.679 8.867,2.831 15.195,2.19 18.989,-1.914 3.793,-4.105 5.175,-12.065 4.141,-23.875 L 25.542,4.548 c -0.095,-3.462 0.792,-5.58 2.665,-6.354 1.873,-0.773 4.09,-0.453 6.64,0.962 2.545,1.409 5.004,3.781 7.371,7.11 2.368,3.323 3.893,7.407 4.575,12.256 l 6.053,-5.274 C 52.477,9.019 51.444,4.875 49.741,0.822 c -1.708,-4.06 -3.86,-7.791 -6.463,-11.187 -2.608,-3.403 -5.581,-6.411 -8.951,-9.025 -3.365,-2.618 -6.915,-4.52 -10.649,-5.71 -4.824,-1.534 -9.022,-1.8 -12.6,-0.799 -3.572,1.001 -6.396,3.4 -8.462,7.197 -3.323,-5.173 -6.98,-9.552 -10.981,-13.14 -3.995,-3.588 -8.097,-6.053 -12.296,-7.39 -5.289,-1.684 -9.994,-1.862 -14.108,-0.514 -4.113,1.342 -7.539,3.899 -10.28,7.648 -2.737,3.756 -4.74,8.559 -6.004,14.412 -1.264,5.853 -1.515,12.415 -0.749,19.686 1.787,18.056 6.428,32.385 13.929,43.005 7.496,10.618 16.618,17.633 27.35,21.059"
           style="fill:#f17408;fill-opacity:1;fill-rule:nonzero;stroke:none"
           id="path408" /></g><g
         id="g410"
         transform="translate(1185.5081,1140.4003)"><path
           d="m 0,0 c -1.358,-1.119 -2.738,-3.103 -4.142,-5.945 -1.407,-2.854 -2.682,-6.258 -3.817,-10.218 -1.14,-3.961 -2.186,-8.327 -3.154,-13.091 -0.963,-4.767 -1.611,-9.596 -1.934,-14.494 l 8.169,2.6 c 3.579,1.141 6.265,3.196 8.058,6.168 1.799,2.972 3.061,7.057 3.802,12.267 0.78,4.02 1.216,7.751 1.312,11.213 C 8.389,-8.038 8.172,-5.196 7.63,-2.966 7.089,-0.742 6.199,0.73 4.938,1.447 3.683,2.159 2.037,1.677 0,0 m 12.92,-71.981 c 3.269,1.044 6.479,2.662 9.635,4.87 3.152,2.202 6.035,4.708 8.656,7.52 2.617,2.801 4.863,5.832 6.742,9.089 1.876,3.252 3.247,6.472 4.119,9.667 l 6.047,-5.27 C 46.86,-55.599 42.227,-64.181 34.227,-71.872 26.223,-79.568 15.922,-85.418 3.316,-89.44 c -6.529,-2.078 -12.48,-2.649 -17.838,-1.7 -5.358,0.944 -9.953,3.124 -13.779,6.531 -3.832,3.407 -6.724,7.925 -8.693,13.553 -1.964,5.633 -2.725,12.032 -2.264,19.208 1.101,16.973 5.337,30.966 12.714,41.975 7.374,10.999 17.048,18.415 29.035,22.235 6.374,2.033 11.731,1.897 16.067,-0.402 4.331,-2.306 7.448,-5.771 9.354,-10.391 1.896,-4.626 2.498,-9.999 1.801,-16.137 -0.706,-6.139 -2.873,-12.097 -6.51,-17.884 -5.167,-7.989 -12.344,-13.447 -21.522,-16.373 l -14.936,-4.763 c 0.21,-7.644 2.798,-13.206 7.763,-16.677 4.96,-3.477 11.099,-4.048 18.412,-1.716"
           style="fill:#f17408;fill-opacity:1;fill-rule:nonzero;stroke:none"
           id="path412" /></g><g
         id="g414"
         transform="translate(1309.4279,1179.9011)"><path
           d="m 0,0 c -1.358,-1.119 -2.738,-3.103 -4.142,-5.945 -1.408,-2.854 -2.682,-6.258 -3.817,-10.218 -1.141,-3.961 -2.192,-8.323 -3.155,-13.085 -0.967,-4.774 -1.61,-9.602 -1.933,-14.5 l 8.169,2.6 c 3.574,1.14 6.265,3.197 8.058,6.168 1.793,2.971 3.06,7.062 3.802,12.267 0.78,4.02 1.216,7.756 1.312,11.213 C 8.389,-8.038 8.172,-5.196 7.63,-2.966 7.089,-0.742 6.193,0.729 4.938,1.447 3.683,2.159 2.037,1.677 0,0 m 12.92,-71.981 c 3.263,1.043 6.479,2.662 9.63,4.869 3.157,2.203 6.039,4.714 8.661,7.521 2.617,2.801 4.863,5.832 6.737,9.089 1.881,3.252 3.252,6.473 4.118,9.667 l 6.053,-5.269 c -1.26,-9.49 -5.893,-18.077 -13.897,-25.768 -7.999,-7.696 -18.3,-13.546 -30.907,-17.568 -6.534,-2.079 -12.479,-2.649 -17.837,-1.7 -5.358,0.944 -9.954,3.129 -13.779,6.531 -3.832,3.407 -6.724,7.925 -8.694,13.558 -1.963,5.628 -2.724,12.027 -2.263,19.203 1.101,16.973 5.337,30.966 12.714,41.976 7.374,10.998 17.048,18.414 29.03,22.234 6.379,2.033 11.736,1.897 16.072,-0.402 4.331,-2.306 7.448,-5.771 9.353,-10.39 1.897,-4.627 2.498,-10 1.797,-16.139 -0.702,-6.133 -2.869,-12.095 -6.51,-17.884 -5.162,-7.988 -12.339,-13.446 -21.517,-16.372 l -14.936,-4.763 c 0.21,-7.643 2.798,-13.206 7.763,-16.677 4.959,-3.472 11.098,-4.047 18.412,-1.716"
           style="fill:#f17408;fill-opacity:1;fill-rule:nonzero;stroke:none"
           id="path416" /></g><g
         id="g418"
         transform="translate(1400.8806,1136.1696)"><path
           d="m 0,0 c -1.708,-4.06 -3.861,-7.785 -6.463,-11.187 -2.598,-3.396 -5.581,-6.411 -8.946,-9.024 -3.371,-2.613 -6.915,-4.514 -10.649,-5.705 -3.734,-1.191 -7.165,-1.6 -10.277,-1.224 -3.124,0.379 -5.778,1.587 -7.97,3.632 -2.197,2.04 -3.811,4.958 -4.847,8.742 -1.03,3.78 -1.305,8.407 -0.82,13.877 0.067,1.39 0.326,4.343 0.771,8.857 0.446,4.513 0.902,9.8 1.368,15.865 0.467,6.06 0.982,12.521 1.534,19.381 0.556,6.866 1.066,13.326 1.533,19.385 0.472,6.061 0.904,11.302 1.293,15.707 0.398,4.412 0.651,7.233 0.773,8.474 0.41,3.559 -0.162,6.156 -1.721,7.807 -1.553,1.647 -4.117,1.904 -7.696,0.763 l -2.334,-0.746 1.703,11.599 c 1.194,0.548 2.441,1.204 3.744,1.963 1.144,0.709 2.39,1.365 3.745,1.964 1.35,0.599 2.875,1.178 4.59,1.723 8.873,2.826 15.161,2.174 18.88,-1.953 3.713,-4.128 5.055,-12.104 4.021,-23.914 -0.066,-1.396 -0.228,-3.588 -0.476,-6.575 -0.241,-2.997 -0.521,-6.557 -0.833,-10.682 -0.322,-4.127 -0.688,-8.613 -1.107,-13.464 -0.43,-4.847 -0.831,-9.648 -1.199,-14.391 -0.875,-11.25 -1.81,-23.632 -2.815,-37.148 -0.25,-3.512 0.6,-5.636 2.554,-6.386 1.953,-0.75 4.16,-0.433 6.634,0.961 2.466,1.386 4.89,3.742 7.257,7.07 2.368,3.324 3.973,7.436 4.815,12.332 L 3.11,12.432 C 2.741,8.198 1.703,4.054 0,0"
           style="fill:#f17408;fill-opacity:1;fill-rule:nonzero;stroke:none"
           id="path420" /></g><g
         id="g422"
         transform="translate(530.5551,875.9706)"><path
           d="m 0,0 c -9.432,-20.816 -17.573,-44.28 -24.442,-70.381 -6.865,-26.107 -13.589,-53.484 -20.178,-82.114 7.778,7.361 16.555,14.614 26.327,21.75 9.774,7.123 20.201,12.461 31.299,15.998 14.896,4.747 28.917,6.771 42.061,6.073 3.444,5.631 6.522,12.114 9.251,19.447 2.721,7.329 4.61,14.83 5.661,22.496 1.042,7.667 1.12,15.105 0.215,22.326 -0.909,7.217 -3.111,13.586 -6.614,19.103 C 57.175,-16.169 48.587,-9.481 37.805,-5.236 27.028,-0.994 14.425,0.751 0,0 m -59.194,-216.851 c -7.569,-31.045 -16.041,-61.151 -25.414,-90.325 -9.383,-29.178 -21.325,-55.509 -35.838,-78.99 16.326,-6.317 33.3,-11.379 50.933,-15.189 17.621,-3.812 36.773,-3.638 57.449,0.509 27.217,5.527 50.072,15.431 68.569,29.711 18.493,14.273 33.118,30.549 43.883,48.814 10.756,18.271 17.824,37.452 21.194,57.562 3.363,20.099 3.375,38.959 0.032,56.577 -3.344,17.607 -9.715,32.949 -19.121,46.019 -9.4,13.059 -21.34,21.479 -35.805,25.247 -9.117,-13.037 -19.24,-25.078 -30.384,-36.133 -11.134,-11.064 -22.495,-20.355 -34.056,-27.879 -11.568,-7.534 -22.714,-12.83 -33.43,-15.896 -10.722,-3.072 -20.059,-3.079 -28.012,-0.027 M -236.593,-445.71 c 10.14,3.231 19.297,9.29 27.462,18.182 8.166,8.883 15.543,19.964 22.138,33.245 -11.606,5.726 -22.858,9.813 -33.769,12.277 -10.912,2.459 -21.757,1.969 -32.527,-1.465 -15.216,-4.849 -25.377,-11.582 -30.488,-20.191 -5.109,-8.617 -6.427,-16.806 -3.952,-24.573 2.477,-7.768 8.289,-13.681 17.439,-17.742 9.154,-4.067 20.384,-3.979 33.697,0.267 m 63.968,183.797 c -18.469,-4.494 -34.89,-5.017 -49.258,-1.556 -14.373,3.44 -26.043,9.939 -35.016,19.475 -8.977,9.526 -15.053,21.473 -18.228,35.825 -3.182,14.349 -2.608,30.076 1.723,47.166 4.325,17.088 12.527,34.895 24.613,53.414 12.076,18.512 28.703,36.727 49.877,54.655 11.277,9.524 23.469,18.39 36.57,26.585 13.102,8.185 26.611,15.634 40.538,22.348 13.916,6.705 28.066,12.434 42.441,17.197 14.369,4.75 28.516,8.302 42.433,10.644 C -23.871,40.917 -9.13,55.748 7.29,68.314 23.71,80.88 42.38,90.498 63.299,97.166 L 70.422,74.822 C 58.694,71.084 48.277,65.144 39.177,57.006 30.071,48.863 21.813,38.903 14.402,27.11 29.744,26.059 43.488,22.938 55.626,17.732 67.763,12.513 77.488,4.444 84.819,-6.484 c 5.26,-7.75 8.939,-16.007 11.034,-24.765 2.09,-8.761 2.84,-17.685 2.252,-26.778 -0.594,-9.094 -2.375,-18.304 -5.334,-27.627 -2.969,-9.324 -6.825,-18.594 -11.57,-27.781 14.55,-5.137 26.935,-13.59 37.146,-25.345 10.206,-11.763 18.153,-25.726 23.832,-41.9 5.681,-16.177 9.018,-33.785 10.036,-52.837 1.01,-19.06 -0.346,-38.349 -4.078,-57.869 -3.726,-19.518 -9.878,-38.582 -18.427,-57.2 -8.56,-18.612 -19.67,-35.511 -33.335,-50.692 -13.673,-15.179 -29.991,-28.063 -48.956,-38.653 -18.976,-10.58 -40.528,-17.45 -64.659,-20.613 -11.706,-1.634 -23.197,-1.453 -34.478,0.536 -11.288,1.988 -22.192,4.971 -32.706,8.955 -10.522,3.971 -20.776,8.745 -30.744,14.289 -9.977,5.551 -19.717,11.178 -29.212,16.874 -9.725,-11.123 -20.293,-20.691 -31.702,-28.698 -11.417,-8.004 -24.255,-14.277 -38.518,-18.822 -17.435,-5.556 -32.687,-7.541 -45.764,-5.953 -13.078,1.593 -23.634,5.388 -31.65,11.388 -8.028,6.002 -13.499,13.587 -16.431,22.784 -2.93,9.189 -2.94,18.526 -0.025,28.012 2.912,9.482 8.842,18.532 17.797,27.15 8.948,8.61 21.343,15.444 37.197,20.498 14.264,4.545 27.803,6.152 40.623,4.831 12.812,-1.331 25.67,-4.129 38.551,-8.398 8.409,22.922 16.162,48.965 23.281,78.126 7.118,29.149 14.667,59.144 22.649,89.972 7.982,30.825 17.013,61.636 27.098,92.439 10.088,30.793 22.403,59.516 36.959,86.149 -22.979,-11.168 -45.697,-26.441 -68.148,-45.815 -14.48,-12.648 -26.303,-25.668 -35.469,-39.062 -9.176,-13.399 -16.158,-26.542 -20.957,-39.413 -4.798,-12.884 -7.538,-25.106 -8.214,-36.663 -0.685,-11.571 0.159,-21.606 2.521,-30.099 2.358,-8.501 6.348,-15.263 11.965,-20.282 5.608,-5.017 12.21,-7.364 19.79,-7.04 z"
           style="fill:#000000;fill-opacity:1;fill-rule:nonzero;stroke:none"
           id="path424" /></g><g
         id="g426"
         transform="translate(823.3078,780.7367)"><path
           d="m 0,0 c -4.266,3.531 -9.575,4.284 -15.912,2.263 -6.025,-1.919 -11.266,-4.899 -15.74,-8.946 -4.472,-4.046 -8.488,-9.516 -12.052,-16.413 -3.562,-6.894 -6.677,-15.48 -9.335,-25.757 -2.664,-10.275 -5.035,-22.555 -7.112,-36.833 -1.823,-10.712 -2.803,-20.532 -2.914,-29.475 -0.119,-8.941 0.623,-16.477 2.229,-22.595 1.599,-6.125 4.147,-10.553 7.638,-13.28 3.488,-2.73 7.92,-3.237 13.313,-1.517 5.386,1.715 10.743,5.167 16.076,10.363 5.327,5.187 10.247,11.647 14.772,19.377 -0.358,4.413 -0.245,8.994 0.342,13.723 z m -30.124,25.49 c 12.361,3.94 23.124,2.48 32.295,-4.369 0.245,2.515 0.325,4.73 0.246,6.624 -0.078,1.894 0.09,3.256 0.526,4.099 L 55.241,48.515 C 55.199,45.359 54.864,39.834 54.236,31.956 53.605,24.072 52.827,15.01 51.902,4.764 50.979,-5.482 50.045,-16.253 49.111,-27.553 48.171,-38.848 47.294,-49.523 46.48,-59.552 45.663,-69.593 44.941,-78.291 44.322,-85.639 43.697,-93 43.37,-97.728 43.346,-99.834 c -0.618,-6.832 1.062,-11.009 5.043,-12.532 3.974,-1.531 8.503,-0.955 13.595,1.714 5.083,2.668 10.115,7.415 15.101,14.243 4.977,6.82 8.166,15.173 9.563,25.044 l 12.325,-10.738 c -0.748,-8.617 -2.861,-17.061 -6.332,-25.32 -3.478,-8.27 -7.864,-15.865 -13.161,-22.791 -5.304,-6.927 -11.378,-13.058 -18.233,-18.384 -6.86,-5.325 -14.086,-9.201 -21.696,-11.628 -9.829,-3.131 -18.487,-3.613 -25.979,-1.474 -7.491,2.146 -13.348,7.089 -17.559,14.832 -6.772,-10.538 -14.122,-19.52 -22.053,-26.934 -7.94,-7.418 -16.181,-12.49 -24.742,-15.219 -10.78,-3.435 -20.357,-3.782 -28.735,-1.042 -8.385,2.735 -15.36,7.937 -20.942,15.584 -5.578,7.647 -9.656,17.431 -12.237,29.356 -2.575,11.923 -3.085,25.285 -1.526,40.107 3.319,36.671 12.701,65.849 28.141,87.531 15.429,21.677 34.087,36.001 55.957,42.975"
           style="fill:#000000;fill-opacity:1;fill-rule:nonzero;stroke:none"
           id="path428" /></g><g
         id="g430"
         transform="translate(930.9314,888.3722)"><path
           d="m 0,0 c 9.189,2.929 16.351,1.285 21.476,-4.939 5.127,-6.22 7.243,-15.064 6.358,-26.515 -0.427,-8.52 -1.896,-15.973 -4.398,-22.353 l 41.841,13.336 c -0.042,-3.157 -0.374,-8.154 -0.988,-14.979 -0.62,-6.834 -1.249,-14.719 -1.89,-23.648 -0.646,-8.934 -1.428,-18.265 -2.339,-27.981 -0.919,-9.719 -1.752,-18.888 -2.494,-27.508 -0.746,-8.616 -1.419,-16.08 -2.029,-22.38 -0.609,-6.306 -0.933,-10.509 -0.956,-12.616 -0.618,-6.831 1.063,-11.006 5.042,-12.529 3.976,-1.531 8.585,-0.931 13.832,1.789 5.242,2.718 10.272,7.465 15.101,14.244 4.821,6.77 7.929,15.095 9.326,24.966 l 12.325,-10.738 c -0.746,-8.616 -2.858,-17.061 -6.33,-25.318 -3.478,-8.27 -7.866,-15.867 -13.162,-22.791 -5.304,-6.927 -11.379,-13.058 -18.234,-18.384 -6.86,-5.326 -14.086,-9.203 -21.692,-11.627 -7.609,-2.425 -14.596,-3.254 -20.946,-2.487 -6.355,0.765 -11.69,3.254 -15.997,7.469 -4.312,4.207 -7.523,10.172 -9.629,17.88 -2.114,7.708 -2.669,17.133 -1.681,28.273 l 8.98,106.563 C 6.72,-76.944 1.151,-80.288 -5.186,-82.309 c -8.879,-2.83 -15.876,-1.136 -21.001,5.087 -5.127,6.224 -7.091,15.105 -5.885,26.671 0.7,13.136 3.919,24.111 9.665,32.936 C -16.66,-8.808 -9.197,-2.93 0,0"
           style="fill:#000000;fill-opacity:1;fill-rule:nonzero;stroke:none"
           id="path432" /></g><g
         id="g434"
         transform="translate(1049.7911,926.2617)"><path
           d="m 0,0 c 9.189,2.929 16.351,1.285 21.475,-4.939 5.128,-6.22 7.244,-15.064 6.358,-26.517 -0.426,-8.518 -1.895,-15.971 -4.397,-22.351 l 41.839,13.336 c -0.038,-3.159 -0.372,-8.154 -0.985,-14.981 -0.619,-6.832 -1.249,-14.717 -1.889,-23.647 -0.647,-8.935 -1.43,-18.264 -2.341,-27.98 -0.921,-9.721 -1.754,-18.891 -2.494,-27.508 -0.748,-8.617 -1.421,-16.082 -2.031,-22.38 -0.607,-6.306 -0.931,-10.509 -0.954,-12.616 -0.62,-6.832 1.061,-11.006 5.042,-12.529 3.975,-1.534 8.585,-0.931 13.834,1.789 5.238,2.718 10.271,7.463 15.099,14.244 4.824,6.769 7.929,15.095 9.324,24.965 l 12.327,-10.737 c -0.746,-8.616 -2.858,-17.061 -6.33,-25.32 -3.477,-8.268 -7.866,-15.865 -13.162,-22.791 -5.304,-6.927 -11.377,-13.056 -18.232,-18.382 -6.864,-5.328 -14.09,-9.203 -21.696,-11.628 -7.605,-2.426 -14.594,-3.255 -20.942,-2.487 -6.357,0.766 -11.692,3.255 -15.999,7.468 -4.312,4.209 -7.523,10.174 -9.627,17.882 -2.116,7.708 -2.671,17.133 -1.681,28.271 l 8.978,106.563 C 6.72,-76.944 1.151,-80.29 -5.186,-82.309 c -8.878,-2.83 -15.876,-1.136 -21.003,5.087 -5.124,6.222 -7.089,15.103 -5.881,26.671 0.696,13.136 3.917,24.111 9.665,32.936 C -16.662,-8.808 -9.196,-2.932 0,0"
           style="fill:#000000;fill-opacity:1;fill-rule:nonzero;stroke:none"
           id="path436" /></g><g
         id="g438"
         transform="translate(1216.3607,991.9273)"><path
           d="m 0,0 c 2.528,-7.924 1.845,-15.647 -2.04,-23.17 -3.889,-7.524 -9.798,-12.549 -17.717,-15.073 -8.245,-2.629 -16.122,-1.998 -23.647,1.887 -7.523,3.887 -12.55,9.79 -15.074,17.714 -2.526,7.924 -1.845,15.649 2.04,23.174 3.889,7.524 9.946,12.597 18.191,15.226 7.919,2.524 15.649,1.845 23.172,-2.04 C -7.551,13.829 -2.524,7.924 0,0 m 37.775,-187.507 c -0.749,-8.619 -2.858,-17.062 -6.333,-25.323 -3.478,-8.267 -7.864,-15.865 -13.161,-22.789 -5.302,-6.927 -11.377,-13.057 -18.231,-18.384 -6.863,-5.325 -14.091,-9.203 -21.696,-11.627 -15.534,-4.951 -27.921,-3.317 -37.18,4.905 -9.25,8.223 -12.942,23.636 -11.07,46.23 0.379,4.309 0.987,10.873 1.837,19.702 0.856,8.826 1.655,18.072 2.419,27.741 0.754,9.674 1.424,18.791 2.017,27.36 0.584,8.56 1.113,14.833 1.588,18.836 0.515,7.144 -0.806,12.392 -3.975,15.756 -3.162,3.351 -8.392,3.868 -15.68,1.546 l -4.757,-1.517 3.47,23.63 c 2.33,1.439 4.826,2.927 7.476,4.478 2.33,1.438 4.949,2.796 7.864,4.076 2.908,1.272 5.949,2.418 9.119,3.429 18.068,5.759 30.906,4.357 38.533,-4.215 7.615,-8.571 10.485,-24.679 8.594,-48.323 -0.386,-5.362 -0.93,-12.697 -1.63,-21.995 -0.7,-9.307 -1.483,-18.632 -2.341,-27.98 -0.775,-10.722 -1.609,-21.813 -2.489,-33.27 -0.52,-7.15 1.214,-11.483 5.194,-13.006 3.972,-1.529 8.561,-0.852 13.757,2.026 5.186,2.876 10.196,7.705 15.024,14.484 4.822,6.77 7.929,15.096 9.324,24.965 z"
           style="fill:#000000;fill-opacity:1;fill-rule:nonzero;stroke:none"
           id="path440" /></g><g
         id="g442"
         transform="translate(1343.5479,877.1775)"><path
           d="m 0,0 c 0.684,11.008 0.802,21.313 0.356,30.922 -0.439,9.597 -1.432,17.897 -2.959,24.89 -1.533,6.993 -3.589,12.34 -6.163,16.047 -2.579,3.704 -5.768,4.955 -9.573,3.742 -3.802,-1.212 -7.424,-4.632 -10.869,-10.258 -3.445,-5.626 -6.542,-12.616 -9.289,-20.974 -2.754,-8.355 -5.09,-17.718 -7.025,-28.071 -1.933,-10.368 -3.242,-21.053 -3.924,-32.061 -0.783,-10.689 -1.06,-20.778 -0.821,-30.274 0.227,-9.501 1.169,-17.639 2.809,-24.424 1.641,-6.788 3.875,-11.903 6.724,-15.348 2.842,-3.446 6.168,-4.558 9.971,-3.346 3.803,1.214 7.372,4.523 10.71,9.94 3.332,5.414 6.327,12.197 8.967,20.347 2.638,8.149 4.949,17.325 6.935,27.531 C -2.166,-21.132 -0.78,-10.689 0,0 m -18.349,98.638 c 11.41,3.639 21.776,4.237 31.114,1.802 9.329,-2.443 17.098,-7.379 23.318,-14.822 6.213,-7.45 10.82,-16.976 13.826,-28.59 C 52.908,45.412 53.946,32.299 53.021,17.692 52.069,0.969 49.309,-14.483 44.757,-28.676 40.202,-42.88 34.25,-55.686 26.891,-67.104 19.538,-78.536 10.907,-88.174 1.024,-96.044 c -9.89,-7.863 -20.856,-13.714 -32.901,-17.554 -11.727,-3.738 -22.176,-4.363 -31.349,-1.875 -9.173,2.484 -16.869,7.455 -23.08,14.902 -6.212,7.444 -10.764,17.079 -13.665,28.901 -2.891,11.82 -3.88,25.032 -2.951,39.653 2.443,33.946 10.971,62.235 25.579,84.881 14.602,22.633 34.272,37.894 58.994,45.774"
           style="fill:#000000;fill-opacity:1;fill-rule:nonzero;stroke:none"
           id="path444" /></g><g
         id="g446"
         transform="translate(1210.5483,550.1238)"><path
           d="m 0,0 c -51.218,-14.573 -103.883,-29.266 -158.002,-44.078 -54.112,-14.802 -107.529,-30.429 -160.246,-46.893 -52.711,-16.452 -103.556,-34.14 -152.515,-53.067 -48.96,-18.923 -94.054,-39.841 -135.283,-62.767 -41.226,-22.914 -77.284,-48.376 -108.162,-76.379 -30.881,-27.996 -54.643,-59.141 -71.299,-93.439 -9.529,11.286 -22.639,20.372 -39.331,27.272 -16.686,6.905 -35.844,10.311 -57.467,10.225 -21.62,-0.084 -45.173,-4.528 -70.64,-13.352 -25.475,-8.813 -51.809,-23.145 -79,-42.99 10.723,31.004 25.24,61.295 43.568,90.879 18.328,29.588 41.03,57.517 68.096,83.768 27.071,26.272 58.611,50.553 94.622,72.851 36.014,22.307 77.225,41.731 123.625,58.263 55.494,19.787 108.081,36.119 157.749,48.974 49.67,12.872 97.451,23.997 143.337,33.391 45.897,9.389 90.404,17.644 133.524,24.754 43.125,7.118 85.815,14.783 128.052,23.011 42.248,8.232 84.617,17.723 127.1,28.47 42.49,10.753 86.2,24.515 131.134,41.277 29.072,10.668 53.906,23.125 74.507,37.369 20.6,14.251 37.411,29.126 50.459,44.627 13.034,15.509 22.339,31.219 27.92,47.133 5.572,15.918 8.033,30.673 7.369,44.251 -0.662,13.575 -4.35,25.403 -11.054,35.497 -6.707,10.077 -15.87,17.46 -27.482,22.141 -15.914,6.097 -29.892,5.044 -41.942,-3.158 -12.047,-8.213 -19.472,-22.707 -22.271,-43.502 l -11.851,10.888 c 1.733,12.076 5.212,22.262 10.422,30.557 5.213,8.291 11.475,14.657 18.795,19.085 7.313,4.429 15.214,7.029 23.696,7.814 8.476,0.783 16.913,0.065 25.303,-2.147 17.707,-5.179 32.836,-15.113 45.374,-29.792 12.536,-14.685 20.454,-32.414 23.759,-53.18 3.297,-20.767 0.793,-43.563 -7.528,-68.394 -8.325,-24.817 -24.46,-49.774 -48.409,-74.874 C 231.979,109.391 199.202,85.156 157.6,61.765 116.003,38.378 63.464,17.794 0,0"
           style="fill:#000000;fill-opacity:1;fill-rule:nonzero;stroke:none"
           id="path448" /></g><g
         id="g450"
         transform="translate(528.1329,891.4982)"><path
           d="m 0,0 c -9.432,-20.816 -17.573,-44.28 -24.442,-70.381 -6.865,-26.107 -13.589,-53.484 -20.178,-82.114 7.778,7.361 16.555,14.614 26.327,21.75 9.774,7.123 20.201,12.461 31.299,15.998 14.896,4.747 28.917,6.771 42.061,6.073 3.444,5.631 6.522,12.114 9.251,19.447 2.721,7.329 4.61,14.83 5.661,22.496 1.042,7.667 1.12,15.105 0.215,22.326 -0.909,7.217 -3.111,13.586 -6.614,19.103 C 57.175,-16.169 48.587,-9.481 37.805,-5.236 27.028,-0.994 14.425,0.751 0,0 m -59.194,-216.851 c -7.569,-31.045 -16.041,-61.151 -25.414,-90.325 -9.383,-29.178 -21.325,-55.509 -35.838,-78.99 16.326,-6.317 33.3,-11.379 50.933,-15.189 17.621,-3.812 36.773,-3.638 57.449,0.509 27.217,5.527 50.072,15.433 68.569,29.711 18.493,14.273 33.117,30.549 43.883,48.814 10.756,18.271 17.824,37.452 21.194,57.562 3.363,20.099 3.375,38.959 0.032,56.577 -3.344,17.607 -9.715,32.949 -19.121,46.019 -9.4,13.059 -21.34,21.479 -35.805,25.247 -9.117,-13.037 -19.241,-25.078 -30.384,-36.133 -11.134,-11.064 -22.495,-20.355 -34.057,-27.879 -11.567,-7.534 -22.713,-12.83 -33.429,-15.896 -10.722,-3.072 -20.059,-3.079 -28.012,-0.027 M -236.593,-445.71 c 10.14,3.231 19.297,9.29 27.462,18.184 8.165,8.883 15.543,19.962 22.138,33.243 -11.606,5.726 -22.858,9.813 -33.769,12.277 -10.912,2.459 -21.757,1.969 -32.527,-1.465 -15.216,-4.849 -25.377,-11.582 -30.489,-20.191 -5.108,-8.617 -6.426,-16.806 -3.951,-24.571 2.476,-7.768 8.289,-13.683 17.439,-17.744 9.154,-4.067 20.384,-3.979 33.697,0.267 m 63.968,183.797 c -18.469,-4.494 -34.89,-5.017 -49.258,-1.556 -14.373,3.44 -26.043,9.939 -35.016,19.475 -8.978,9.526 -15.053,21.473 -18.228,35.825 -3.182,14.349 -2.608,30.076 1.723,47.166 4.325,17.088 12.527,34.895 24.613,53.414 12.076,18.512 28.703,36.727 49.877,54.655 11.277,9.524 23.469,18.39 36.57,26.585 13.102,8.185 26.611,15.634 40.538,22.348 13.916,6.705 28.066,12.434 42.441,17.197 14.369,4.75 28.516,8.302 42.433,10.644 C -23.871,40.917 -9.13,55.748 7.29,68.314 23.71,80.88 42.38,90.498 63.299,97.166 L 70.422,74.822 C 58.694,71.084 48.277,65.144 39.177,57.006 30.071,48.863 21.813,38.903 14.402,27.11 29.744,26.059 43.488,22.938 55.626,17.732 67.763,12.513 77.487,4.444 84.819,-6.484 c 5.26,-7.75 8.939,-16.007 11.034,-24.765 2.09,-8.761 2.84,-17.685 2.252,-26.778 -0.594,-9.094 -2.375,-18.304 -5.334,-27.627 -2.969,-9.324 -6.825,-18.594 -11.57,-27.781 14.55,-5.137 26.935,-13.59 37.146,-25.345 10.206,-11.763 18.153,-25.726 23.832,-41.9 5.681,-16.177 9.017,-33.785 10.036,-52.837 1.01,-19.06 -0.346,-38.349 -4.078,-57.869 -3.726,-19.518 -9.878,-38.582 -18.427,-57.2 -8.56,-18.61 -19.67,-35.511 -33.335,-50.692 -13.673,-15.179 -29.991,-28.063 -48.956,-38.653 -18.976,-10.58 -40.528,-17.45 -64.659,-20.613 -11.706,-1.634 -23.197,-1.453 -34.478,0.536 -11.288,1.988 -22.192,4.971 -32.706,8.955 -10.522,3.971 -20.776,8.745 -30.744,14.289 -9.977,5.551 -19.717,11.178 -29.212,16.876 -9.725,-11.125 -20.293,-20.693 -31.702,-28.7 -11.417,-8.004 -24.255,-14.277 -38.518,-18.822 -17.435,-5.556 -32.687,-7.541 -45.764,-5.953 -13.078,1.593 -23.634,5.388 -31.65,11.388 -8.028,6.002 -13.499,13.587 -16.431,22.784 -2.93,9.189 -2.94,18.526 -0.025,28.012 2.912,9.482 8.842,18.532 17.797,27.15 8.948,8.61 21.343,15.444 37.197,20.498 14.264,4.545 27.803,6.152 40.623,4.831 12.812,-1.331 25.67,-4.129 38.551,-8.398 8.409,22.922 16.162,48.965 23.281,78.126 7.118,29.149 14.667,59.144 22.649,89.972 7.982,30.825 17.013,61.636 27.098,92.439 10.088,30.793 22.403,59.516 36.959,86.149 -22.979,-11.168 -45.697,-26.441 -68.148,-45.815 -14.48,-12.648 -26.303,-25.668 -35.469,-39.062 -9.176,-13.399 -16.158,-26.542 -20.957,-39.413 -4.798,-12.884 -7.538,-25.106 -8.214,-36.663 -0.685,-11.571 0.159,-21.606 2.521,-30.099 2.358,-8.501 6.348,-15.263 11.965,-20.282 5.608,-5.017 12.21,-7.364 19.79,-7.04 z"
           style="fill:#f17408;fill-opacity:1;fill-rule:nonzero;stroke:none"
           id="path452" /></g><g
         id="g454"
         transform="translate(820.8856,796.2643)"><path
           d="m 0,0 c -4.266,3.531 -9.576,4.284 -15.912,2.263 -6.025,-1.919 -11.266,-4.899 -15.74,-8.946 -4.472,-4.046 -8.489,-9.516 -12.052,-16.413 -3.562,-6.894 -6.677,-15.48 -9.335,-25.757 -2.664,-10.275 -5.035,-22.555 -7.112,-36.833 -1.823,-10.712 -2.803,-20.532 -2.914,-29.475 -0.119,-8.941 0.623,-16.477 2.229,-22.595 1.599,-6.125 4.147,-10.553 7.638,-13.28 3.488,-2.73 7.92,-3.237 13.313,-1.517 5.386,1.715 10.743,5.167 16.076,10.363 5.327,5.187 10.247,11.647 14.772,19.377 -0.358,4.413 -0.245,8.994 0.342,13.723 z m -30.124,25.49 c 12.361,3.94 23.124,2.48 32.295,-4.369 0.245,2.515 0.325,4.73 0.246,6.624 -0.078,1.894 0.09,3.256 0.526,4.099 L 55.241,48.515 C 55.199,45.359 54.864,39.834 54.236,31.956 53.605,24.072 52.827,15.01 51.902,4.764 50.979,-5.482 50.045,-16.253 49.111,-27.553 48.171,-38.848 47.294,-49.523 46.48,-59.552 45.663,-69.593 44.941,-78.291 44.322,-85.639 43.697,-93 43.37,-97.728 43.346,-99.834 c -0.618,-6.832 1.062,-11.009 5.043,-12.532 3.974,-1.531 8.503,-0.955 13.595,1.714 5.083,2.668 10.115,7.415 15.101,14.243 4.977,6.82 8.166,15.173 9.563,25.044 l 12.325,-10.738 c -0.748,-8.617 -2.861,-17.061 -6.332,-25.32 -3.478,-8.27 -7.864,-15.865 -13.161,-22.791 -5.304,-6.927 -11.378,-13.058 -18.233,-18.384 -6.86,-5.325 -14.087,-9.201 -21.696,-11.628 -9.829,-3.131 -18.487,-3.613 -25.979,-1.474 -7.491,2.146 -13.348,7.089 -17.559,14.832 -6.772,-10.538 -14.122,-19.52 -22.053,-26.934 -7.94,-7.418 -16.181,-12.49 -24.742,-15.219 -10.78,-3.435 -20.357,-3.782 -28.735,-1.042 -8.385,2.735 -15.36,7.937 -20.942,15.584 -5.578,7.647 -9.656,17.431 -12.237,29.356 -2.575,11.923 -3.085,25.285 -1.526,40.107 3.319,36.671 12.701,65.849 28.141,87.531 15.429,21.677 34.087,36.001 55.957,42.975"
           style="fill:#f17408;fill-opacity:1;fill-rule:nonzero;stroke:none"
           id="path456" /></g><g
         id="g458"
         transform="translate(928.5092,903.8998)"><path
           d="m 0,0 c 9.189,2.929 16.351,1.285 21.476,-4.939 5.127,-6.22 7.243,-15.064 6.358,-26.515 -0.427,-8.52 -1.896,-15.973 -4.398,-22.353 l 41.841,13.336 c -0.042,-3.157 -0.374,-8.154 -0.988,-14.979 -0.62,-6.834 -1.249,-14.719 -1.89,-23.648 -0.646,-8.934 -1.428,-18.265 -2.339,-27.981 -0.919,-9.719 -1.752,-18.888 -2.494,-27.508 -0.746,-8.616 -1.419,-16.08 -2.029,-22.38 -0.609,-6.306 -0.933,-10.509 -0.956,-12.616 -0.618,-6.831 1.063,-11.006 5.042,-12.529 3.976,-1.531 8.585,-0.931 13.832,1.789 5.242,2.718 10.272,7.465 15.101,14.244 4.821,6.77 7.929,15.095 9.326,24.966 l 12.325,-10.738 c -0.746,-8.616 -2.858,-17.061 -6.33,-25.318 -3.478,-8.27 -7.866,-15.867 -13.162,-22.791 -5.304,-6.927 -11.379,-13.058 -18.234,-18.384 -6.86,-5.326 -14.086,-9.203 -21.692,-11.627 -7.609,-2.425 -14.596,-3.254 -20.946,-2.487 -6.355,0.765 -11.69,3.254 -15.997,7.469 -4.312,4.207 -7.523,10.172 -9.629,17.88 -2.114,7.708 -2.669,17.133 -1.681,28.273 l 8.98,106.563 C 6.72,-76.944 1.151,-80.288 -5.186,-82.309 c -8.879,-2.83 -15.876,-1.136 -21.001,5.087 -5.127,6.224 -7.092,15.105 -5.885,26.671 0.7,13.136 3.919,24.111 9.665,32.936 C -16.66,-8.808 -9.197,-2.93 0,0"
           style="fill:#f17408;fill-opacity:1;fill-rule:nonzero;stroke:none"
           id="path460" /></g><g
         id="g462"
         transform="translate(1047.369,941.7893)"><path
           d="m 0,0 c 9.189,2.929 16.351,1.285 21.474,-4.939 5.129,-6.22 7.245,-15.064 6.359,-26.517 -0.426,-8.518 -1.895,-15.971 -4.397,-22.351 l 41.839,13.336 c -0.038,-3.159 -0.372,-8.154 -0.985,-14.981 -0.619,-6.832 -1.25,-14.717 -1.889,-23.647 -0.647,-8.935 -1.43,-18.264 -2.341,-27.98 -0.921,-9.721 -1.754,-18.891 -2.494,-27.508 -0.748,-8.617 -1.421,-16.082 -2.031,-22.38 -0.608,-6.306 -0.931,-10.509 -0.954,-12.616 -0.62,-6.832 1.061,-11.006 5.042,-12.529 3.975,-1.534 8.585,-0.931 13.834,1.789 5.238,2.718 10.271,7.463 15.099,14.244 4.824,6.769 7.929,15.095 9.324,24.965 l 12.327,-10.737 c -0.746,-8.616 -2.858,-17.061 -6.33,-25.32 -3.478,-8.268 -7.866,-15.865 -13.162,-22.791 -5.304,-6.927 -11.377,-13.056 -18.232,-18.382 -6.864,-5.328 -14.09,-9.203 -21.696,-11.628 -7.605,-2.426 -14.594,-3.255 -20.942,-2.487 -6.357,0.766 -11.692,3.255 -15.999,7.468 -4.312,4.209 -7.523,10.174 -9.627,17.882 -2.116,7.708 -2.671,17.133 -1.681,28.271 l 8.978,106.563 C 6.72,-76.944 1.151,-80.29 -5.186,-82.309 c -8.879,-2.83 -15.876,-1.136 -21.003,5.087 -5.124,6.222 -7.089,15.103 -5.881,26.671 0.696,13.136 3.917,24.111 9.665,32.936 C -16.662,-8.808 -9.196,-2.932 0,0"
           style="fill:#f17408;fill-opacity:1;fill-rule:nonzero;stroke:none"
           id="path464" /></g><g
         id="g466"
         transform="translate(1213.9386,1007.4549)"><path
           d="m 0,0 c 2.528,-7.924 1.845,-15.647 -2.04,-23.17 -3.889,-7.524 -9.799,-12.549 -17.717,-15.073 -8.246,-2.629 -16.122,-1.998 -23.647,1.887 -7.523,3.887 -12.55,9.79 -15.074,17.714 -2.526,7.924 -1.845,15.649 2.04,23.174 3.888,7.524 9.945,12.597 18.191,15.226 7.919,2.524 15.649,1.845 23.172,-2.04 C -7.551,13.829 -2.524,7.924 0,0 m 37.775,-187.507 c -0.749,-8.619 -2.858,-17.062 -6.333,-25.323 -3.478,-8.267 -7.864,-15.865 -13.161,-22.789 -5.302,-6.927 -11.377,-13.057 -18.232,-18.384 -6.862,-5.325 -14.09,-9.203 -21.695,-11.627 -15.534,-4.951 -27.921,-3.317 -37.181,4.905 -9.249,8.223 -12.941,23.636 -11.069,46.23 0.379,4.309 0.986,10.873 1.837,19.702 0.856,8.826 1.655,18.072 2.419,27.741 0.754,9.674 1.424,18.791 2.017,27.36 0.584,8.56 1.113,14.833 1.587,18.836 0.516,7.144 -0.805,12.392 -3.974,15.756 -3.162,3.351 -8.392,3.868 -15.68,1.546 l -4.757,-1.517 3.469,23.63 c 2.331,1.439 4.827,2.927 7.477,4.478 2.33,1.438 4.949,2.796 7.864,4.076 2.908,1.272 5.949,2.418 9.119,3.429 18.067,5.759 30.906,4.357 38.533,-4.215 7.615,-8.571 10.485,-24.679 8.594,-48.323 -0.386,-5.362 -0.93,-12.697 -1.63,-21.995 -0.7,-9.307 -1.483,-18.632 -2.341,-27.98 -0.775,-10.722 -1.609,-21.813 -2.489,-33.27 -0.52,-7.15 1.213,-11.483 5.194,-13.006 3.972,-1.529 8.561,-0.852 13.757,2.026 5.186,2.876 10.196,7.705 15.024,14.484 4.821,6.77 7.929,15.096 9.324,24.965 z"
           style="fill:#f17408;fill-opacity:1;fill-rule:nonzero;stroke:none"
           id="path468" /></g><g
         id="g470"
         transform="translate(1341.1256,892.7051)"><path
           d="m 0,0 c 0.684,11.008 0.802,21.313 0.356,30.922 -0.439,9.597 -1.432,17.897 -2.959,24.89 -1.532,6.993 -3.589,12.34 -6.163,16.047 -2.579,3.704 -5.768,4.955 -9.573,3.742 -3.802,-1.212 -7.424,-4.632 -10.869,-10.258 -3.445,-5.626 -6.542,-12.616 -9.289,-20.974 -2.754,-8.355 -5.09,-17.718 -7.025,-28.071 -1.933,-10.368 -3.242,-21.053 -3.924,-32.061 -0.783,-10.689 -1.06,-20.778 -0.821,-30.274 0.227,-9.501 1.169,-17.639 2.809,-24.424 1.641,-6.788 3.875,-11.903 6.724,-15.348 2.842,-3.446 6.168,-4.558 9.971,-3.346 3.803,1.214 7.372,4.523 10.71,9.94 3.332,5.414 6.327,12.197 8.967,20.347 2.638,8.149 4.949,17.325 6.935,27.531 C -2.166,-21.132 -0.78,-10.689 0,0 m -18.349,98.638 c 11.41,3.639 21.776,4.237 31.114,1.802 9.329,-2.443 17.098,-7.379 23.318,-14.822 6.213,-7.45 10.82,-16.976 13.826,-28.59 C 52.908,45.412 53.946,32.299 53.021,17.692 52.069,0.969 49.309,-14.483 44.757,-28.676 40.202,-42.88 34.25,-55.686 26.891,-67.104 19.538,-78.536 10.907,-88.174 1.024,-96.044 c -9.89,-7.863 -20.856,-13.714 -32.901,-17.554 -11.727,-3.738 -22.176,-4.363 -31.349,-1.875 -9.173,2.484 -16.869,7.455 -23.08,14.902 -6.212,7.444 -10.764,17.079 -13.665,28.901 -2.891,11.82 -3.88,25.032 -2.951,39.653 2.443,33.946 10.971,62.235 25.579,84.881 14.602,22.633 34.272,37.894 58.994,45.774"
           style="fill:#f17408;fill-opacity:1;fill-rule:nonzero;stroke:none"
           id="path472" /></g><g
         id="g474"
         transform="translate(1208.1261,565.6514)"><path
           d="m 0,0 c -51.218,-14.573 -103.883,-29.266 -158.002,-44.078 -54.112,-14.802 -107.529,-30.429 -160.246,-46.893 -52.711,-16.452 -103.556,-34.14 -152.515,-53.067 -48.96,-18.923 -94.054,-39.841 -135.283,-62.767 -41.226,-22.914 -77.284,-48.376 -108.162,-76.379 -30.881,-27.996 -54.643,-59.141 -71.299,-93.439 -9.529,11.286 -22.639,20.372 -39.331,27.272 -16.686,6.905 -35.844,10.311 -57.467,10.225 -21.62,-0.084 -45.173,-4.528 -70.64,-13.352 -25.475,-8.813 -51.809,-23.145 -79,-42.99 10.723,31.004 25.24,61.295 43.568,90.879 18.328,29.588 41.03,57.517 68.096,83.768 27.071,26.271 58.611,50.553 94.622,72.851 36.014,22.307 77.225,41.731 123.625,58.263 55.494,19.787 108.081,36.119 157.749,48.976 49.67,12.872 97.451,23.995 143.337,33.389 45.897,9.389 90.404,17.644 133.524,24.754 43.125,7.118 85.815,14.783 128.052,23.011 42.248,8.232 84.617,17.723 127.1,28.47 42.49,10.753 86.2,24.515 131.134,41.277 29.072,10.668 53.906,23.125 74.507,37.369 20.6,14.251 37.411,29.126 50.459,44.627 13.034,15.509 22.339,31.219 27.92,47.133 5.573,15.918 8.033,30.673 7.369,44.251 -0.662,13.575 -4.35,25.403 -11.054,35.497 -6.707,10.077 -15.87,17.46 -27.482,22.141 -15.914,6.097 -29.892,5.044 -41.942,-3.158 -12.047,-8.213 -19.472,-22.707 -22.271,-43.502 l -11.851,10.888 c 1.733,12.076 5.212,22.262 10.422,30.557 5.213,8.291 11.475,14.657 18.795,19.085 7.313,4.429 15.214,7.029 23.697,7.814 8.475,0.783 16.912,0.065 25.302,-2.147 17.707,-5.179 32.836,-15.113 45.374,-29.792 12.536,-14.685 20.454,-32.414 23.759,-53.18 3.297,-20.767 0.793,-43.563 -7.528,-68.394 -8.325,-24.817 -24.46,-49.774 -48.409,-74.874 C 231.98,109.391 199.202,85.156 157.6,61.765 116.003,38.378 63.464,17.794 0,0"
           style="fill:#f17408;fill-opacity:1;fill-rule:nonzero;stroke:none"
           id="path476" /></g></g></g></svg>
