<?xml version="1.0" encoding="UTF-8" standalone="no"?>
<!-- Created with Inkscape (http://www.inkscape.org/) -->

<svg
   width="86.694763mm"
   height="25.051512mm"
   viewBox="0 0 86.694763 25.051512"
   version="1.1"
   id="svg5"
   xml:space="preserve"
   xmlns:inkscape="http://www.inkscape.org/namespaces/inkscape"
   xmlns:sodipodi="http://sodipodi.sourceforge.net/DTD/sodipodi-0.dtd"
   xmlns="http://www.w3.org/2000/svg"
   xmlns:svg="http://www.w3.org/2000/svg"><sodipodi:namedview
     id="namedview7"
     pagecolor="#ffffff"
     bordercolor="#000000"
     borderopacity="0.25"
     inkscape:showpageshadow="2"
     inkscape:pageopacity="0.0"
     inkscape:pagecheckerboard="0"
     inkscape:deskcolor="#d1d1d1"
     inkscape:document-units="mm"
     showgrid="false" /><defs
     id="defs2"><clipPath
       clipPathUnits="userSpaceOnUse"
       id="clipPath148"><path
         d="M 0,0 H 1495 V 432 H 0 Z"
         id="path146" /></clipPath></defs><g
     id="g398"
     transform="translate(-219.9997,0.00483234)"><g
       id="g142"
       transform="matrix(0.05798961,0,0,0.05798961,220,-0.00483234)"><g
         id="g144"
         clip-path="url(#clipPath148)"><path
           d="m 338.15,36.36 c 29.62,31.2 47,67.99 52.13,110.38 4.06,33.48 -8.08,69.87 -45.19,77.87 -0.32,0.07 -0.49,-0.35 -0.23,-0.54 15.47,-11.1 22.04,-28.44 20.87,-47.33 -1.97,-32.04 -13.52,-60.15 -34.64,-84.34 -2.64,-3.03 -5.32,-5.57 -8.03,-7.63 -0.27,-0.21 -0.46,-0.15 -0.56,0.18 -1.72,5.61 -4.24,10.86 -7.57,15.74 -9.44,13.86 -19.52,27.25 -30.24,40.16 -14.83,17.85 -22.57,41.12 -22.46,63.9 0.22,44.71 32.33,87.89 80.53,86 9.97,-0.39 21.45,-2.37 34.44,-5.94"
           style="fill:none;stroke:#ef795c;stroke-width:4.5626;stroke-linecap:butt;stroke-linejoin:miter;stroke-miterlimit:10;stroke-dasharray:none;stroke-opacity:1"
           id="path150" /><path
           d="m 378.79,74.75 c -0.07,0.07 -0.12,0.15 -0.17,0.23 -0.14,0.24 -0.15,0.48 -0.02,0.73 22.5,41.56 44.85,113.21 2.22,151.11 -12.19,10.85 -26.64,17.97 -43.33,21.38 -20.84,4.26 -36.93,-1.25 -53.25,-13.7 -0.45,-0.35 -0.62,-0.24 -0.49,0.32 4.51,19.45 17.09,32.57 35.46,39.43 27.91,10.42 58.18,3.02 81.14,-15.66"
           style="fill:none;stroke:#ef795c;stroke-width:4.5626;stroke-linecap:butt;stroke-linejoin:miter;stroke-miterlimit:10;stroke-dasharray:none;stroke-opacity:1"
           id="path152" /></g></g><path
       d="m 235.33999,-0.00483234 h 0.16121 c 1.64227,0.17106935 2.99111,0.93073327 4.10799,2.10850224 1.71765,1.8092759 2.72551,3.9427138 3.02299,6.4008934 0.23544,1.9414927 -0.46855,4.0517337 -2.62055,4.5156507 -0.0186,0.0041 -0.0284,-0.0203 -0.0133,-0.03131 0.8971,-0.643685 1.27809,-1.649225 1.21024,-2.744648 -0.11424,-1.8579875 -0.78402,-3.4880755 -2.00876,-4.8908442 -0.15309,-0.1757085 -0.30851,-0.3230021 -0.46566,-0.4424607 -0.0156,-0.012178 -0.0267,-0.0087 -0.0325,0.010438 -0.0997,0.3253217 -0.24588,0.6297672 -0.43898,0.9127565 -0.54742,0.803736 -1.13196,1.5802169 -1.75361,2.3288628 -0.85998,1.0351146 -1.30882,2.3845326 -1.30244,3.7055366 0.0128,2.592715 1.8748,5.096707 4.6699,4.987106 0.57815,-0.02262 1.24388,-0.137435 1.99716,-0.344458 -0.04,0.06321 -0.10496,0.126417 -0.19484,0.190786 -1.21721,0.866945 -2.76959,0.982344 -4.20309,0.742847 -2.3567,-0.394909 -4.08363,-1.819714 -4.83228,-4.116103 -0.8449,-2.592715 0.0789,-5.4214488 1.92352,-7.3490235 0.44594,-0.4668164 1.13196,-1.1191995 1.56572,-1.8081161 0.70341,-1.1174598 0.70109,-2.1862084 -0.008,-3.20508584 -0.0481,-0.0695875 -0.18093,-0.22905897 -0.39955,-0.4789942 -0.13743,-0.15715185 -0.26559,-0.32126245 -0.38563,-0.4923318 z"
       style="fill:#de048c;fill-opacity:1;fill-rule:nonzero;stroke:none;stroke-width:0.0579896"
       id="path154" /><path
       d="m 246.92516,-0.00483234 h 3.04445 l 0.008,17.56099434 c 0,0.01334 -0.011,0.02435 -0.0249,0.02435 h -3.00038 c -0.0191,0 -0.029,-0.0099 -0.029,-0.02899 z"
       style="fill:#de048c;fill-opacity:1;fill-rule:nonzero;stroke:none;stroke-width:0.0579896"
       id="path156" /><path
       d="m 239.60919,2.1036699 c 0.8971,0.6268677 1.68285,1.3685549 2.35669,2.2262212 -0.004,0.00406 -0.007,0.0087 -0.01,0.013338 -0.008,0.013917 -0.009,0.027835 -0.001,0.042332 1.30476,2.4100482 2.60083,6.5650039 0.12873,8.7628099 -0.70689,0.629188 -1.54484,1.042074 -2.51269,1.239818 -1.2085,0.247036 -2.14155,-0.07249 -3.08794,-0.794457 -0.0261,-0.0203 -0.036,-0.01392 -0.0284,0.01856 0.26153,1.127898 0.99104,1.888722 2.05631,2.286531 1.61849,0.604251 3.37384,0.175128 4.70528,-0.908118 -0.33634,0.61817 -0.78402,1.124999 -1.34246,1.520488 -0.75328,0.207023 -1.41901,0.321842 -1.99716,0.344458 -2.7951,0.109601 -4.65715,-2.394391 -4.6699,-4.987106 -0.006,-1.321004 0.44246,-2.670422 1.30244,-3.7055366 0.62165,-0.7486459 1.20619,-1.5251268 1.75361,-2.3288628 0.1931,-0.2829893 0.33924,-0.5874348 0.43898,-0.9127565 0.006,-0.019137 0.0168,-0.022616 0.0325,-0.010438 0.15715,0.1194586 0.31257,0.2667522 0.46566,0.4424607 1.22474,1.4027687 1.89452,3.0328567 2.00876,4.8908442 0.0678,1.095423 -0.31314,2.100963 -1.21024,2.744648 -0.0151,0.01102 -0.005,0.03537 0.0133,0.03131 2.152,-0.463917 2.85599,-2.574158 2.62055,-4.5156507 -0.29748,-2.4581796 -1.30534,-4.5916175 -3.02299,-6.4008934 z"
       style="fill:#ffee2b;fill-opacity:1;fill-rule:nonzero;stroke:none;stroke-width:0.0579896"
       id="path158" /><path
       d="m 272.97003,25.04668 h -0.97133 c -1.51875,-0.122358 -2.9969,-0.571198 -4.13292,-1.623709 -1.10122,-1.020037 -1.66024,-2.323064 -1.67764,-3.90908 0,-0.01102 0.009,-0.01972 0.0197,-0.01972 h 3.00966 c 0.0162,0 0.0302,0.01334 0.0307,0.02957 0.15193,3.35122 5.91899,3.588398 6.35566,0.363015 0.24123,-1.780861 -1.29723,-2.815395 -2.88615,-2.841491 -0.4413,-0.007 -0.8536,-0.03131 -1.23749,-0.07249 -2.51501,-0.270811 -4.47274,-1.798258 -5.07062,-4.308628 -0.75908,-3.1882687 0.42449,-6.497156 3.62493,-7.736394 1.5895,-0.6158496 3.78267,-0.6552826 5.26662,0.2360178 0.0226,0.013338 0.0423,0.00986 0.0586,-0.010438 l 1.17719,-1.4891732 c 0.0157,-0.019717 0.0446,-0.023776 0.0644,-0.0087 l 2.22332,1.6793791 c 0.011,0.0087 0.0133,0.024356 0.005,0.035374 l -1.35464,1.7217116 c -0.01,0.012178 -0.009,0.030155 0.001,0.041753 0.94639,1.0977433 1.31289,2.3787339 1.28157,3.8070177 -0.04,1.831312 -0.83853,3.615652 -2.5614,4.449543 -0.0284,0.01392 -0.029,0.02842 -5.8e-4,0.04291 1.89858,0.991622 2.68202,2.495873 2.49355,4.626991 -0.27777,3.146517 -2.7806,4.798061 -5.71893,4.986527 M 275.6045,9.9276284 c -0.73009,-3.6933584 -5.96308,-3.3929722 -6.31217,0.3334406 -0.0505,0.535244 -0.0232,1.035114 0.0806,1.499611 0.3549,1.589495 1.72925,2.549803 3.33904,2.441943 2.2558,-0.151353 3.29903,-2.218103 2.89253,-4.2749946 z"
       style="fill:#28429f;fill-opacity:1;fill-rule:nonzero;stroke:none;stroke-width:0.0579896"
       id="path160" /><path
       d="m 241.96588,4.3298911 c 2.00354,1.9304742 3.07577,4.700638 2.85425,7.4812399 -0.10264,1.287949 -0.6373,2.347419 -1.60399,3.17957 -1.33144,1.083246 -3.08679,1.512369 -4.70528,0.908118 -1.06527,-0.397809 -1.79478,-1.158633 -2.05631,-2.286531 -0.008,-0.03247 0.002,-0.03885 0.0284,-0.01856 0.94639,0.72197 1.87944,1.041493 3.08794,0.794457 0.96785,-0.197744 1.8058,-0.61063 2.51269,-1.239818 2.4721,-2.197806 1.17603,-6.3527616 -0.12873,-8.7628098 -0.008,-0.014497 -0.007,-0.028415 0.001,-0.042332 0.003,-0.00464 0.006,-0.00928 0.01,-0.013338 z"
       style="fill:#de048c;fill-opacity:1;fill-rule:nonzero;stroke:none;stroke-width:0.0579896"
       id="path162" /><path
       d="m 220,15.518407 v -0.029 l 1.48279,-2.142136 c 0.0128,-0.01856 0.0394,-0.02088 0.0551,-0.0052 1.02178,1.024676 2.64723,1.577897 4.06102,1.696776 0.91101,0.07713 2.53182,-0.360116 2.40541,-1.573838 -0.10091,-0.977125 -1.33493,-1.113401 -2.08995,-1.153414 -1.8748,-0.100902 -4.52435,-0.632666 -5.28053,-2.6669419 C 220.21341,8.512116 220.41,7.182994 221.1743,6.2464618 c 1.31694,-1.613271 4.05347,-1.8800232 5.94567,-1.6248689 1.28679,0.1733889 2.40889,0.6912362 3.36514,1.5529618 0.011,0.00986 0.0122,0.020876 0.002,0.032474 l -1.67242,1.964688 c -0.0168,0.019716 -0.047,0.021456 -0.0661,0.00406 -1.04845,-0.9568286 -2.34974,-1.1754494 -3.72235,-1.0420733 -0.41811,0.040593 -0.78692,0.1606312 -1.10702,0.3595356 -0.47378,0.2940073 -0.61121,0.988143 -0.27487,1.4364027 0.31372,0.418685 1.03279,0.6268677 1.546,0.6802181 1.50483,0.156572 3.04909,0.2018039 4.35966,1.0142382 0.96901,0.601352 1.44452,1.589495 1.51701,2.707535 0.16759,2.601993 -1.898,4.078409 -4.25354,4.336463 -2.55038,0.27951 -4.99639,-0.22268 -6.81378,-2.149675 z"
       style="fill:#de048c;fill-opacity:1;fill-rule:nonzero;stroke:none;stroke-width:0.0579896"
       id="path164" /><path
       d="m 306.69447,13.292766 v 0.710372 c -0.39317,3.537947 -4.47506,4.052894 -7.21507,3.587818 -1.49671,-0.253995 -2.7777,-0.940592 -3.84239,-2.060371 -0.0151,-0.01566 -0.0162,-0.03305 -0.004,-0.05103 l 1.47989,-2.145036 c 0.007,-0.0099 0.0209,-0.0116 0.0296,-0.0029 0.96262,0.950449 2.37409,1.479315 3.6922,1.666621 0.42158,0.05973 0.79503,0.06495 1.11919,0.01624 0.69994,-0.106121 1.53905,-0.494651 1.66779,-1.28331 0.15367,-0.943491 -0.80258,-1.293168 -1.55181,-1.369135 -0.49291,-0.05045 -0.98524,-0.102061 -1.47757,-0.154832 -1.76694,-0.191366 -3.89516,-0.911017 -4.42925,-2.8275735 -0.14671,-0.5259657 -0.16411,-1.0797665 -0.0516,-1.6602425 0.36128,-1.8672655 2.09169,-2.7591458 3.79774,-3.0473541 2.18911,-0.3699738 4.48898,-0.034794 6.18865,1.4909129 0.018,0.015657 0.0191,0.033054 0.003,0.051031 l -1.67474,1.9675876 c -0.0122,0.014497 -0.0342,0.015657 -0.0481,0.0029 -1.06585,-0.9794445 -2.35902,-1.1835679 -3.75773,-1.0409135 -0.46739,0.047551 -1.07164,0.2249997 -1.34941,0.6001925 -0.28647,0.3867907 -0.24356,0.9777049 0.1038,1.3111451 0.47087,0.4511592 1.34362,0.5729374 1.98498,0.6100507 2.38743,0.1362756 5.08163,0.7068938 5.33447,3.6278308 z"
       style="fill:#28429f;fill-opacity:1;fill-rule:nonzero;stroke:none;stroke-width:0.0579896"
       id="path166" /><path
       d="m 290.82967,6.541035 c 0.009,0.013918 0.0301,0.0087 0.0313,-0.00812 l 0.0974,-1.613271 c 0.002,-0.024356 0.0145,-0.036533 0.0394,-0.036533 l 2.86816,-0.0029 c 0.0313,0 0.0563,0.025515 0.0563,0.05683 v 12.337291 c 0,0.02494 -0.0203,0.04523 -0.0452,0.04523 h -2.79684 c -0.0394,0 -0.0719,-0.03015 -0.0754,-0.06901 l -0.14034,-1.670101 c -10e-4,-0.01624 -0.0226,-0.02088 -0.0307,-0.007 -0.90232,1.605152 -2.98879,2.241298 -4.74065,2.081827 -3.02532,-0.274871 -5.0625,-2.126479 -5.54091,-5.119323 -0.47204,-2.9516711 0.47725,-6.1729941 3.44284,-7.3925156 2.16939,-0.89304 5.42841,-0.8756431 6.83466,1.3975496 m -4.70818,0.9475503 c -1.3036,0.3299609 -2.27957,1.4062481 -2.51327,2.7307307 -0.38679,2.194327 0.68892,4.270355 3.02764,4.591038 1.94671,0.266752 3.53679,-0.773582 4.03434,-2.639108 0.18382,-0.689496 0.1902,-1.378993 0.0191,-2.069069 -0.53872,-2.1699712 -2.47731,-3.142457 -4.56784,-2.6135917 z"
       style="fill:#28429f;fill-opacity:1;fill-rule:nonzero;stroke:none;stroke-width:0.0579896"
       id="path168" /><path
       d="m 261.49272,15.694115 c -0.1786,0.161791 -0.35779,0.321263 -0.53756,0.478415 -1.321,1.156892 -3.08447,1.583696 -4.78646,1.209663 -2.025,-0.44478 -3.32744,-2.041234 -3.76469,-4.007082 -0.16991,-0.761984 -0.21746,-1.427125 -0.21804,-2.28943 -0.003,-2.054572 -0.003,-4.092327 -0.001,-6.1144247 0,-0.05857 0.029,-0.087564 0.0876,-0.087564 l 2.98066,-0.00174 c 0.0104,0 0.0191,0.00812 0.0191,0.018557 0,2.1334378 0,4.2680355 0,6.4026327 0,1.627188 0.74343,3.141877 2.52313,3.362818 1.82029,0.225579 3.248,-0.960308 3.56172,-2.717974 0.04,-0.2221 0.0597,-0.607731 0.0603,-1.156312 0.003,-1.9565695 0.003,-3.9142988 10e-4,-5.872608 0,-0.017397 0.0145,-0.031894 0.0319,-0.031894 l 2.99575,-0.0087 c 0.0174,0 0.0319,0.014497 0.0319,0.031894 v 12.394701 c 0,0.01624 -0.0128,0.02899 -0.029,0.02899 h -2.69362 c -0.0174,0 -0.0325,-0.01334 -0.0342,-0.03073 l -0.18904,-1.594714 c -0.004,-0.03016 -0.0168,-0.03479 -0.0394,-0.0145 z"
       style="fill:#de048c;fill-opacity:1;fill-rule:nonzero;stroke:none;stroke-width:0.0579896"
       id="path170" /><path
       d="m 299.44576,23.029801 c 0,0.02494 -0.0203,0.04523 -0.0452,0.04523 h -0.37345 c -0.0249,0 -0.0452,-0.0203 -0.0452,-0.04523 v -4.07319 c 0,-0.02494 0.0203,-0.04523 0.0452,-0.04523 h 0.37345 c 0.0249,0 0.0452,0.0203 0.0452,0.04523 z"
       style="fill:#28429f;fill-opacity:1;fill-rule:nonzero;stroke:none;stroke-width:0.0579896"
       id="path172" /><path
       d="m 303.08635,18.899781 c 0.0557,0 0.091,0.05915 0.0644,0.107861 l -0.40245,0.733568 c -0.0104,0.01914 -0.0267,0.02842 -0.0481,0.02842 h -0.29459 c -0.062,0 -0.10264,-0.06437 -0.0765,-0.120618 l 0.33808,-0.719071 c 0.009,-0.0203 0.0249,-0.03016 0.047,-0.03016 z"
       style="fill:#28429f;fill-opacity:1;fill-rule:nonzero;stroke:none;stroke-width:0.0579896"
       id="path174" /><path
       d="m 293.55228,22.683603 c 5.8e-4,-0.0116 -0.0133,-0.01798 -0.0215,-0.0099 -0.4065,0.386211 -0.88492,0.517847 -1.43408,0.394909 -1.5373,-0.344458 -1.48105,-2.697097 0.0562,-2.994583 0.52307,-0.101482 0.97887,0.02435 1.3674,0.376932 0.0186,0.01682 0.0278,0.01276 0.0278,-0.01218 l -0.004,-1.480474 c 0,-0.02436 0.0197,-0.04407 0.0441,-0.04407 h 0.37752 c 0.0191,0 0.029,0.0099 0.029,0.02899 V 23.0385 c 0,0.02435 -0.0122,0.03653 -0.0365,0.03653 h -0.37172 c -0.0307,0 -0.0452,-0.01508 -0.0441,-0.04581 l 0.01,-0.345618 m -0.0253,-1.243616 c -0.004,-0.525067 -0.43226,-0.947811 -0.95764,-0.944367 l -0.18325,0.0013 c -0.52539,0.0034 -0.94813,0.432516 -0.94436,0.957646 l 0.002,0.256309 c 0.004,0.525066 0.43226,0.947811 0.95764,0.944366 l 0.18324,-0.0013 c 0.5254,-0.0034 0.94814,-0.432516 0.94437,-0.957647 z"
       style="fill:#28429f;fill-opacity:1;fill-rule:nonzero;stroke:none;stroke-width:0.0579896"
       id="path176" /><path
       d="m 301.14138,23.042559 c 0,0.0174 -0.0145,0.03189 -0.0319,0.03189 h -0.38505 c -0.0174,0 -0.0319,-0.0145 -0.0319,-0.03189 v -4.096386 c 0,-0.0174 0.0145,-0.03189 0.0319,-0.03189 h 0.38505 c 0.0174,0 0.0319,0.0145 0.0319,0.03189 z"
       style="fill:#28429f;fill-opacity:1;fill-rule:nonzero;stroke:none;stroke-width:0.0579896"
       id="path178" /><path
       d="m 282.07208,20.323426 c -5.8e-4,0.01682 0.0191,0.02609 0.0319,0.01508 0.55148,-0.496391 1.42075,-0.38679 1.83189,0.22442 0.0122,0.01856 0.0249,0.01914 0.0383,0.0012 0.62107,-0.847808 1.8922,-0.666881 2.23028,0.340399 0.0307,0.09278 0.0481,0.270232 0.0522,0.532345 0.007,0.527705 0.0116,1.05657 0.0133,1.586595 0,0.02841 -0.0226,0.05103 -0.051,0.05103 l -0.38331,5.8e-4 c -0.0203,0 -0.0307,-0.01044 -0.0307,-0.03073 -0.002,-0.580476 -0.002,-1.159213 -5.8e-4,-1.736789 0.003,-0.904638 -1.21488,-1.17603 -1.54832,-0.361275 -0.0516,0.125257 -0.0771,0.32996 -0.0765,0.61411 5.8e-4,0.490012 5.8e-4,0.981184 0,1.472356 0,0.0232 -0.0191,0.04233 -0.0423,0.04233 h -0.37694 c -0.0191,0 -0.029,-0.0099 -0.029,-0.029 -10e-4,-0.507409 -10e-4,-1.014238 0,-1.520487 0,-0.16701 -0.0145,-0.457538 -0.0968,-0.602512 -0.42449,-0.752705 -1.52455,-0.514368 -1.53905,0.357796 -0.004,0.271971 -0.005,0.857666 -0.002,1.757665 0,0.02378 -0.0122,0.03595 -0.036,0.03595 l -0.37809,5.8e-4 c -0.0244,0 -0.0365,-0.01218 -0.0365,-0.03595 v -2.926736 c 0,-0.02494 0.0128,-0.03769 0.0377,-0.03769 l 0.35373,-5.8e-4 c 0.0319,0 0.047,0.01566 0.0458,0.04755 z"
       style="fill:#28429f;fill-opacity:1;fill-rule:nonzero;stroke:none;stroke-width:0.0579896"
       id="path180" /><path
       d="m 306.69447,21.164855 v 1.89916 l -0.41521,0.0064 c -0.0215,5.8e-4 -0.0325,-0.0099 -0.0325,-0.03131 -0.003,-0.511469 -0.003,-1.021197 -5.8e-4,-1.529766 0.003,-0.637886 -0.23486,-1.037434 -0.92204,-1.018878 -0.67674,0.0174 -0.89014,0.524226 -0.89072,1.11862 -5.8e-4,0.475515 -5.8e-4,0.951029 -5.8e-4,1.425964 0,0.02668 -0.0133,0.04001 -0.04,0.04001 h -0.37288 c -0.0243,0 -0.0365,-0.01218 -0.0365,-0.03595 v -2.912819 c 0,-0.01972 0.0151,-0.03595 0.0348,-0.03711 l 0.33982,-0.01914 c 0.0429,-0.0023 0.0783,0.03189 0.0771,0.07481 l -0.007,0.217461 c -5.8e-4,0.02726 0.009,0.03189 0.0296,0.0145 0.80953,-0.687177 2.07023,-0.317204 2.23666,0.788078 z"
       style="fill:#28429f;fill-opacity:1;fill-rule:nonzero;stroke:none;stroke-width:0.0579896"
       id="path182" /><path
       d="m 287.69765,21.824197 c 0.17977,1.016558 1.39755,1.052512 2.00818,0.408247 0.0151,-0.01566 0.0313,-0.01682 0.0487,-0.0029 l 0.27893,0.225579 c 0.0168,0.01334 0.018,0.02841 0.005,0.04523 -0.95219,1.205604 -2.97487,0.543363 -2.82815,-1.049032 0.1844,-1.997162 3.26365,-1.856827 2.98588,0.311404 -0.003,0.02088 -0.0203,0.03653 -0.0417,0.03653 h -2.43498 c -0.0168,0 -0.0244,0.0081 -0.0215,0.02494 m 0.022,-0.440141 2.04239,-0.01044 c 0.004,0 0.007,-0.0035 0.007,-0.007 v -0.0041 c -0.002,-0.495231 -0.46218,-0.89362 -1.02584,-0.89072 h -0.0139 c -0.56423,0.0029 -1.01887,0.406507 -1.01655,0.901158 v 0.0041 c 0,0.0041 0.003,0.007 0.007,0.007 z"
       style="fill:#28429f;fill-opacity:1;fill-rule:nonzero;stroke:none;stroke-width:0.0579896"
       id="path184" /><path
       d="m 295.48159,21.825357 c 0.18325,1.0067 1.39176,1.054251 2.00123,0.410566 0.0174,-0.01798 0.036,-0.01914 0.0551,-0.0035 l 0.27487,0.2221 c 0.0197,0.01624 0.0215,0.03421 0.005,0.05335 -0.65587,0.7817 -1.95947,0.845488 -2.54227,-0.007 -0.80721,-1.180668 0.12758,-2.666362 1.56108,-2.423386 0.85477,0.144394 1.25084,0.867525 1.1424,1.685178 -0.003,0.02088 -0.0209,0.03653 -0.0418,0.03653 h -2.43324 c -0.018,0 -0.0249,0.0087 -0.022,0.0261 m 0.0203,-0.443041 2.04355,-0.007 c 0.003,0 0.006,-0.0029 0.006,-0.0064 v -0.0041 c -0.002,-0.495232 -0.45927,-0.89478 -1.02235,-0.89304 h -0.0186 c -0.5625,0.0017 -1.01714,0.404767 -1.0154,0.899998 v 0.0041 c 0,0.0035 0.003,0.0064 0.006,0.0064 z"
       style="fill:#28429f;fill-opacity:1;fill-rule:nonzero;stroke:none;stroke-width:0.0579896"
       id="path186" /><path
       d="m 302.80916,23.044299 c 0,0.01682 -0.0133,0.03015 -0.0301,0.03015 h -0.38969 c -0.0168,0 -0.0302,-0.01334 -0.0302,-0.03015 v -2.940074 c 0,-0.01682 0.0133,-0.03015 0.0302,-0.03015 h 0.38969 c 0.0168,0 0.0301,0.01334 0.0301,0.03015 z"
       style="fill:#28429f;fill-opacity:1;fill-rule:nonzero;stroke:none;stroke-width:0.0579896"
       id="path188" /></g></svg>
